<svg xmlns="http://www.w3.org/2000/svg" viewBox="0 0 96 96"><defs><style>.cls-1{fill:#a5a5a5;}.cls-2{fill:#fff;fill-rule:evenodd;}</style></defs><g id="Design"><circle class="cls-1" cx="48" cy="48" r="24" transform="translate(-9.74 83.69) rotate(-76.72)"/><path class="cls-2" d="M44,48.12v14.7a.38.38,0,0,0,.39.38h5.45a.38.38,0,0,0,.39-.38V47.88h4a.39.39,0,0,0,.39-.35L55,43a.39.39,0,0,0-.38-.42H50.25V39.42a1.35,1.35,0,0,1,1.35-1.36h3a.39.39,0,0,0,.39-.38v-4.5a.39.39,0,0,0-.39-.38H49.5A5.47,5.47,0,0,0,44,38.27v4.34H41.29a.38.38,0,0,0-.38.39v4.5a.38.38,0,0,0,.38.38H44Z"/></g></svg>