<svg xmlns="http://www.w3.org/2000/svg" viewBox="0 0 48 48"><defs><style>.cls-1{fill:#3c5a99;}.cls-2{fill:#a2b1ce;}.cls-3{fill:#e8ecf3;}.cls-4{fill:#a7b5d1;}.cls-5{fill:#fff;fill-rule:evenodd;}</style></defs><g id="Design"><circle class="cls-1" cx="24" cy="24" r="24" transform="translate(-4.87 41.84) rotate(-76.72)"/><path class="cls-2" d="M23.51,25.36c0-.11,0-.23-.05-.34a4.73,4.73,0,0,1,.31-2.08l.34.29c.75.62.12,1.43.29,2.13h-.89Z"/><path class="cls-3" d="M24.53,23.6c-.15.39-.31.78-.47,1.17-.21-.41-1.35-.82,0-1.24Z"/><path class="cls-4" d="M23.54,22.93h.6c.09.3.19.61.29.91-.33.21,0,.41,0,.61l-.31.31a.6.6,0,0,0-.31.61C23.22,24.62,23.65,23.74,23.54,22.93Z"/><path class="cls-5" d="M20,24.27V39a.38.38,0,0,0,.39.38h5.45a.38.38,0,0,0,.39-.38V24H30.2a.39.39,0,0,0,.39-.35l.38-4.5a.38.38,0,0,0-.38-.41H26.25v-3.2a1.34,1.34,0,0,1,1.35-1.35h3a.39.39,0,0,0,.39-.39V9.33A.39.39,0,0,0,30.65,9H25.5A5.48,5.48,0,0,0,20,14.43v4.34H17.29a.38.38,0,0,0-.38.38v4.5a.38.38,0,0,0,.38.38H20Z"/><circle class="cls-1" cx="24" cy="24" r="24" transform="translate(-4.87 41.84) rotate(-76.72)"/><path class="cls-2" d="M23.51,25.36c0-.11,0-.23-.05-.34a4.73,4.73,0,0,1,.31-2.08l.34.29c.75.62.12,1.43.29,2.13h-.89Z"/><path class="cls-3" d="M24.53,23.6c-.15.39-.31.78-.47,1.17-.21-.41-1.35-.82,0-1.24Z"/><path class="cls-4" d="M23.54,22.93h.6c.09.3.19.61.29.91-.33.21,0,.41,0,.61l-.31.31a.6.6,0,0,0-.31.61C23.22,24.62,23.65,23.74,23.54,22.93Z"/><path class="cls-5" d="M20,24.27V39a.38.38,0,0,0,.39.38h5.45a.38.38,0,0,0,.39-.38V24H30.2a.39.39,0,0,0,.39-.35l.38-4.5a.38.38,0,0,0-.38-.41H26.25v-3.2a1.34,1.34,0,0,1,1.35-1.35h3a.39.39,0,0,0,.39-.39V9.33A.39.39,0,0,0,30.65,9H25.5A5.48,5.48,0,0,0,20,14.43v4.34H17.29a.38.38,0,0,0-.38.38v4.5a.38.38,0,0,0,.38.38H20Z"/></g></svg>