<svg xmlns="http://www.w3.org/2000/svg" viewBox="0 0 48 48"><defs><style>.cls-1{fill:#a5a5a5;}.cls-2{fill:#fff;fill-rule:evenodd;}</style></defs><g id="Design"><circle class="cls-1" cx="24" cy="24" r="24" transform="translate(-4.87 41.84) rotate(-76.72)"/><path class="cls-2" d="M20,24.12v14.7a.38.38,0,0,0,.39.38h5.45a.38.38,0,0,0,.39-.38V23.88H30.2a.39.39,0,0,0,.39-.35L31,19a.39.39,0,0,0-.38-.42H26.25V15.42a1.35,1.35,0,0,1,1.35-1.36h3a.39.39,0,0,0,.39-.38V9.18a.39.39,0,0,0-.39-.38H25.5A5.47,5.47,0,0,0,20,14.27v4.34H17.29a.38.38,0,0,0-.38.39v4.5a.38.38,0,0,0,.38.38H20Z"/></g></svg>