<svg xmlns="http://www.w3.org/2000/svg" viewBox="0 0 96 96"><defs><style>.cls-1{fill:#333033;}.cls-2{fill:#fff;}</style></defs><g id="Design"><circle class="cls-1" cx="48" cy="48" r="24" transform="translate(-14.71 22.02) rotate(-22.5)"/><circle class="cls-2" cx="56.5" cy="39.64" r="1.86"/><path class="cls-2" d="M48.21,40.17A7.83,7.83,0,1,0,56,48,7.84,7.84,0,0,0,48.21,40.17Zm0,12.85a5,5,0,1,1,5-5A5,5,0,0,1,48.21,53Z"/><path class="cls-2" d="M54.42,63.9H41.73a9.56,9.56,0,0,1-9.56-9.55V41.65a9.56,9.56,0,0,1,9.56-9.55H54.42A9.56,9.56,0,0,1,64,41.65v12.7A9.56,9.56,0,0,1,54.42,63.9ZM41.73,35.09a6.56,6.56,0,0,0-6.56,6.56v12.7a6.56,6.56,0,0,0,6.56,6.56H54.42A6.57,6.57,0,0,0,61,54.35V41.65a6.57,6.57,0,0,0-6.57-6.56Z"/><circle class="cls-1" cx="48" cy="48" r="24" transform="translate(-14.71 22.02) rotate(-22.5)"/><circle class="cls-2" cx="56.5" cy="39.64" r="1.86"/><path class="cls-2" d="M48.21,40.17A7.83,7.83,0,1,0,56,48,7.84,7.84,0,0,0,48.21,40.17Zm0,12.85a5,5,0,1,1,5-5A5,5,0,0,1,48.21,53Z"/><path class="cls-2" d="M54.42,63.9H41.73a9.56,9.56,0,0,1-9.56-9.55V41.65a9.56,9.56,0,0,1,9.56-9.55H54.42A9.56,9.56,0,0,1,64,41.65v12.7A9.56,9.56,0,0,1,54.42,63.9ZM41.73,35.09a6.56,6.56,0,0,0-6.56,6.56v12.7a6.56,6.56,0,0,0,6.56,6.56H54.42A6.57,6.57,0,0,0,61,54.35V41.65a6.57,6.57,0,0,0-6.57-6.56Z"/></g></svg>