<svg xmlns="http://www.w3.org/2000/svg" viewBox="0 0 48 48"><defs><style>.cls-1{fill:#222;}.cls-2{fill:#fff;}</style></defs><g id="Design"><circle class="cls-1" cx="24" cy="24" r="24" transform="translate(-7.36 11.01) rotate(-22.5)"/><circle class="cls-2" cx="32.5" cy="15.64" r="1.86"/><path class="cls-2" d="M24.21,16.17A7.83,7.83,0,1,0,32,24,7.84,7.84,0,0,0,24.21,16.17Zm0,12.85a5,5,0,1,1,5-5A5,5,0,0,1,24.21,29Z"/><path class="cls-2" d="M30.42,39.9H17.73a9.56,9.56,0,0,1-9.56-9.55V17.65A9.56,9.56,0,0,1,17.73,8.1H30.42A9.56,9.56,0,0,1,40,17.65v12.7A9.56,9.56,0,0,1,30.42,39.9ZM17.73,11.09a6.56,6.56,0,0,0-6.56,6.56v12.7a6.56,6.56,0,0,0,6.56,6.56H30.42A6.57,6.57,0,0,0,37,30.35V17.65a6.57,6.57,0,0,0-6.57-6.56Z"/></g></svg>