<svg xmlns="http://www.w3.org/2000/svg" viewBox="0 0 96 96"><defs><style>.cls-1{fill:#222;}.cls-2,.cls-3{fill:#fff;}.cls-3{fill-rule:evenodd;}</style></defs><g id="Design"><circle class="cls-1" cx="48" cy="48" r="24" transform="translate(-9.03 84.82) rotate(-77.84)"/><path class="cls-2" d="M62.58,38.74a12,12,0,0,1-3,.86c.48-.08,1.19-1,1.47-1.31a5.27,5.27,0,0,0,1-1.81s0-.11,0-.15a.15.15,0,0,0-.16,0,15.06,15.06,0,0,1-3.54,1.36.25.25,0,0,1-.25-.07,3,3,0,0,0-.31-.31,6.1,6.1,0,0,0-1.72-1.06,5.92,5.92,0,0,0-2.63-.42,6.24,6.24,0,0,0-2.5.7,6.46,6.46,0,0,0-2,1.65,6.08,6.08,0,0,0-1.2,2.41,6.63,6.63,0,0,0-.07,2.55c0,.14,0,.16-.12.14-4.87-.72-8.91-2.46-12.19-6.2-.14-.16-.22-.16-.33,0-1.44,2.15-.74,5.61,1.05,7.3a7.87,7.87,0,0,0,.75.66,6.18,6.18,0,0,1-2.35-.66c-.14-.09-.22,0-.23.13a4.29,4.29,0,0,0,0,.7,6.25,6.25,0,0,0,3.85,5,4.39,4.39,0,0,0,.78.24,7.21,7.21,0,0,1-2.3.07c-.17,0-.24,0-.17.21a6.47,6.47,0,0,0,4.85,4.06c.21,0,.43,0,.65.09l0,0c-.55.83-2.44,1.45-3.31,1.75a12,12,0,0,1-5,.65c-.27,0-.33,0-.4,0s0,.11.08.18c.34.22.69.42,1,.62a16.47,16.47,0,0,0,3.36,1.34c6,1.67,12.84.44,17.38-4.06,3.56-3.54,4.81-8.42,4.81-13.3,0-.19.22-.3.36-.4a11.93,11.93,0,0,0,2.35-2.46.69.69,0,0,0,.15-.47v0C62.69,38.67,62.7,38.69,62.58,38.74Z"/><path class="cls-3" d="M41.91,60.07Z"/><path class="cls-3" d="M42.9,60.1c0-.05.52,0,0,0C42.9,60.07,43,60.1,42.9,60.1Z"/><path class="cls-3" d="M53.36,35.86a.1.1,0,0,1-.13,0Z"/></g></svg>