<svg xmlns="http://www.w3.org/2000/svg" viewBox="0 0 100 100" width="100" height="100" preserveAspectRatio="xMidYMid meet" style="width: 100%; height: 100%; transform: translate3d(0px, 0px, 0px); content-visibility: visible;"><defs><clipPath id="__lottie_element_17"><rect width="100" height="100" x="0" y="0"></rect></clipPath></defs><g clip-path="url(#__lottie_element_17)"><g transform="matrix(0.9999692440032959,0.007846134714782238,-0.007846134714782238,0.9999692440032959,19.792123794555664,19.512815475463867)" opacity="1" style="display: block;"><g opacity="1" transform="matrix(1,0,0,1,30.25,5.25)"><path fill="rgb(0,0,0)" fill-opacity="1" d=" M-30,-5 C-30,-5 30,-5 30,-5 C30,-5 30,5 30,5 C30,5 -30,5 -30,5 C-30,5 -30,-5 -30,-5z"></path></g></g><g transform="matrix(1,0,0,1,19.75,44.75)" opacity="1" style="display: block;"><g opacity="1" transform="matrix(1,0,0,1,30.25,5.25)"><path fill="rgb(0,0,0)" fill-opacity="1" d=" M-30,-5 C-30,-5 30,-5 30,-5 C30,-5 30,5 30,5 C30,5 -30,5 -30,5 C-30,5 -30,-5 -30,-5z"></path></g></g><g transform="matrix(-0.999968945980072,-0.007880516350269318,0.007880516350269318,-0.999968945980072,80.20768737792969,80.48822021484375)" opacity="1" style="display: block;"><g opacity="1" transform="matrix(1,0,0,1,30.25,5.25)"><path fill="rgb(0,0,0)" fill-opacity="1" d=" M-30,-5 C-30,-5 30,-5 30,-5 C30,-5 30,5 30,5 C30,5 -30,5 -30,5 C-30,5 -30,-5 -30,-5z"></path></g></g></g></svg>