<svg xmlns="http://www.w3.org/2000/svg" xmlns:xlink="http://www.w3.org/1999/xlink" viewBox="0 0 48 48"><defs><style>.cls-1{fill:none;}.cls-2{fill:#2d3081;}.cls-3{fill:#e34554;}.cls-4{fill:#fff;}.cls-5{clip-path:url(#clip-path);}</style><clipPath id="clip-path"><rect class="cls-1" x="50" width="48" height="48"/></clipPath></defs><g id="Inglaterra"><rect class="cls-2" y="10" width="48" height="28"/><polygon class="cls-3" points="0.5 10 0 10 0 10.84 0 11.37 0 12.02 14.95 20.27 15.96 20.83 16.97 21.39 21.07 23.65 21.64 23.96 21.76 24.03 22.21 24.28 22.33 24.35 22.9 24.66 24.57 25.58 25.14 25.9 25.26 25.97 25.71 26.21 25.83 26.28 26.4 26.6 26.73 26.77 27.43 27.17 28.45 27.73 47.05 38 48 38 48 37.88 48 36.13 48 35.48 48 35.2 48 34.83 48 34.55 35.64 27.73 34.63 27.17 33.61 26.61 29.79 24.5 29.22 24.18 29.1 24.11 28.66 23.87 28.53 23.8 27.96 23.48 26.29 22.56 25.72 22.25 25.6 22.18 25.15 21.93 25.03 21.87 24.46 21.55 21.27 19.79 20.69 19.47 20.1 19.14 3.55 10 3.04 10 2.37 10 1.87 10 0.7 10 0.5 10"/><path class="cls-4" d="M23.45,24.32,22.88,24l-.12-.07-.55.34.12.07.57.31,1.67.92.55-.34Zm0,0L22.88,24l-.12-.07-.55.34.12.07.57.31,1.67.92.55-.34Zm0,0L22.88,24l-.12-.07-.55.34.12.07.57.31,1.67.92.55-.34Zm6.17,3.41-1-.56-1-.56L27,26.25l-.57-.31-.12-.07-.45-.25-.12-.06-.57-.32-1.67-.92L22.88,24l-.12-.07-.45-.25-.12-.07-.57-.31-3.47-1.92-1-.56-1-.56L0,11.37v1.29l13.78,7.61,1,.56,1,.56L20.52,24l.56.32.13.06.44.25.13.07.56.31,1.67.93.58.31.12.07.44.25.13.06.57.32.88.48.58.33.59.32,18,9.93H48v-.12Zm7.19,0-1-.56-1-.56-4.43-2.45-.57-.32-.13-.07-.44-.24-.12-.07-.58-.32-1.67-.92-.56-.31-.13-.07-.44-.25-.13-.07L25,21.21l-3.74-2.07-.58-.32-.59-.32L4.72,10H2.37L20.1,19.79l.59.32.58.33,2.64,1.45.57.32.12.07.45.24.12.07.57.31,1.67.93.57.31.12.07.45.25.12.06.57.32,3.2,1.77,1,.56,1,.56L48,35.2V33.91ZM23.45,24.32,22.88,24l-.12-.07-.55.34.12.07.57.31,1.67.92.55-.34Zm0,0L22.88,24l-.12-.07-.55.34.12.07.57.31,1.67.92.55-.34Z"/><polygon class="cls-3" points="0.5 10 0 10 0 10.84 0 11.37 0 12.02 0 12.29 0 12.66 0 12.94 13.27 20.27 14.28 20.83 15.3 21.39 20.27 24.14 20.28 24.14 20.84 24.45 20.97 24.52 21.41 24.77 21.54 24.84 22.11 25.15 23.77 26.07 24.35 26.39 24.47 26.45 24.91 26.7 25.04 26.77 25.61 27.08 26.73 27.7 27.31 28.02 27.9 28.35 45.37 38 45.87 38 46.54 38 47.05 38 48 38 48 37.88 48 36.13 48 35.48 33.97 27.73 32.95 27.17 31.94 26.61 29 24.99 28.43 24.67 28.31 24.61 27.86 24.36 27.74 24.29 27.17 23.98 25.5 23.05 24.93 22.74 24.81 22.67 24.36 22.42 24.24 22.36 23.67 22.04 21.27 20.72 20.69 20.39 20.1 20.07 1.87 10 0.7 10 0.5 10"/><path class="cls-4" d="M35.14,27.73l-1-.56-1-.56-3.56-2L29,24.33l-.12-.07L28.42,24,28.29,24l-.57-.32-1.67-.92-.57-.31-.12-.07-.44-.25L24.79,22l-.57-.32-2.95-1.63-.58-.32-.59-.33L3,10H.7L19.29,20.27l1,.56,1,.53,1.85,1,.57.32.12.07.45.24.12.07.57.32,1.67.92.57.31.12.07.45.25.12.06.57.32,2.32,1.28,1,.56,1,.56L48,36.13v-1.3Zm-7.2,0-.63-.35-.58-.32-.57-.32-.57-.31-.12-.07L25,26.11l-.12-.06-.57-.32-1.67-.92-.57-.31L22,24.43l-.45-.25-.12-.07-.57-.31-4.36-2.41-2-1.12L0,12.29v1.3l12.1,6.68,2,1.12,5.59,3.09.57.32.13.06.44.25.12.07.57.31,1.67.92.57.32.13.07.44.24.12.07.57.31,1.68.93.58.32.59.33,16.3,9h2.34Z"/><polygon class="cls-3" points="48 10 48 11.77 34.25 20.27 33.34 20.83 32.43 21.39 29.09 23.46 28.53 23.8 28.29 23.95 27.98 24.14 27.74 24.29 27.19 24.63 25.69 25.56 25.14 25.9 24.9 26.05 24.59 26.24 24.35 26.39 23.79 26.73 21.27 28.29 20.69 28.65 20.1 29.01 5.55 38 0 38 0 37.34 15.55 27.73 17.36 26.61 20.29 24.8 20.84 24.45 21.08 24.31 21.4 24.11 21.64 23.96 22.19 23.62 23.69 22.7 24.24 22.36 24.48 22.21 24.79 22.02 25.03 21.87 25.58 21.52 26.73 20.82 27.31 20.46 27.9 20.1 44.23 10 48 10"/><path class="cls-4" d="M33.16,20.27l-1.81,1.12-2.84,1.75-.55.34-.24.15-.31.2-.24.15-.55.34-1.5.92-.55.34-.24.15-.32.2-.23.14-.56.34-1.95,1.21-.58.36-.59.36L4.48,38H6.63L20.1,29.68l.59-.36.58-.37L24.36,27l.56-.34.23-.14.32-.2.24-.15.55-.34,1.5-.92.55-.35.24-.14.31-.2.24-.15.55-.34,3.86-2.38,1.81-1.12L48,12.43V11.1ZM43.16,10,27.9,19.43l-.59.36-.58.36L25,21.21l-.55.34-.24.15-.31.19-.24.15-.55.34-1.5.93-.55.34-.24.15-.31.19-.24.15h0l-.55.34-3.44,2.13-1.81,1.12L0,36.67V38H0L16.63,27.73l1.81-1.12,2.42-1.5.56-.34.23-.15.32-.19.24-.15.55-.34,1.5-.93.55-.34.24-.15.31-.19.24-.15.55-.34.73-.45,1.81-1.12L45.31,10Z"/><polygon class="cls-3" points="48 10 48 12.58 35.55 20.27 33.74 21.39 29.78 23.84 29.22 24.18 28.98 24.33 28.67 24.52 28.43 24.67 27.88 25.01 26.38 25.94 25.83 26.28 25.59 26.43 25.28 26.62 25.04 26.77 24.48 27.11 21.27 29.1 20.69 29.46 20.1 29.82 6.87 38 0.23 38 16.86 27.73 18.67 26.61 20.98 25.18 21.54 24.84 21.78 24.69 22.09 24.5 22.33 24.35 22.88 24.01 24.38 23.08 24.93 22.74 25.17 22.59 25.48 22.4 25.72 22.25 26.28 21.91 27.11 21.39 28.92 20.27 45.54 10 48 10"/><path class="cls-4" d="M24.38,23.08l-1.5.93.57.31L25,23.4Zm0,0-1.5.93.57.31L25,23.4Zm10.1-2.81-1.82,1.12-3.45,2.14-.56.34-.23.15-.32.19-.24.15-.55.34-1.5.92-.55.35-.24.14-.31.2-.24.15-.55.34-2.65,1.63-.58.36-.59.36L5.79,38H7.94L20.1,30.49l.59-.37.58-.36,3.78-2.34.56-.34.24-.14.31-.2.24-.14.55-.35,1.5-.92L29,25l.24-.15.31-.19.24-.15.56-.34,4.47-2.77,1.81-1.12,11.37-7V11.91Zm-10.1,2.81-1.5.93.57.31L25,23.4Zm0,0-1.5.93.57.31L25,23.4ZM44.47,10,27.9,20.24l-.59.36-.58.36-1,.63-.56.34-.23.15-.32.2-.24.14-.55.35-1.5.92-.55.34-.24.15-.31.19-.24.15-.55.34-2.83,1.75-1.81,1.12L0,37.48V38H1.31L17.94,27.73l1.81-1.12,1.8-1.12.56-.34.23-.15.32-.19.24-.15.55-.34L25,23.4l.55-.35.24-.15.31-.19.24-.15.55-.34,1.35-.83L30,20.27,46.62,10Z"/><polygon class="cls-3" points="48 20.83 48 27.17 27.31 27.17 27.31 38 20.69 38 20.69 27.17 0 27.17 0 20.83 20.69 20.83 20.69 10 27.31 10 27.31 20.83 48 20.83"/><path class="cls-4" d="M26.73,26.61V38H27.9V27.73H48V26.61Zm1.17-6.34V10H26.73V21.39H48V20.27ZM20.1,10V20.27H0v1.12H21.27V10ZM0,26.61v1.12H20.1V38h1.17V26.61Z"/><g class="cls-5"><rect class="cls-2" x="32.86" width="82.29" height="48"/><polygon class="cls-3" points="33.72 0 32.86 0 32.86 1.43 32.86 2.34 32.86 3.46 58.48 17.61 60.22 18.57 61.95 19.53 68.97 23.4 69.95 23.94 70.16 24.06 70.92 24.48 71.13 24.59 72.11 25.14 74.97 26.71 75.95 27.26 76.16 27.37 76.93 27.79 77.14 27.91 78.11 28.45 78.67 28.76 79.89 29.43 81.63 30.39 113.51 48 115.14 48 115.14 47.8 115.14 44.79 115.14 43.68 115.14 43.2 115.14 42.57 115.14 42.09 93.96 30.39 92.22 29.43 90.48 28.47 83.93 24.85 82.95 24.32 82.75 24.2 81.98 23.77 81.77 23.66 80.79 23.12 77.93 21.54 76.95 21 76.75 20.88 75.98 20.46 75.77 20.34 74.79 19.8 69.32 16.79 68.32 16.23 67.32 15.68 38.94 0 38.07 0 36.93 0 36.06 0 34.05 0 33.72 0"/><path class="cls-4" d="M73.06,24.55l-1-.54-.21-.12-.94.59.2.12,1,.54L75,26.71l1-.58Zm0,0-1-.54-.21-.12-.94.59.2.12,1,.54L75,26.71l1-.58Zm0,0-1-.54-.21-.12-.94.59.2.12,1,.54L75,26.71l1-.58Zm10.57,5.84-1.74-1-1.74-1-1.09-.61-1-.53-.21-.12-.76-.43-.21-.11-1-.54-2.86-1.58-1-.54-.21-.12-.76-.42-.22-.12-1-.53-6-3.29-1.74-1-1.74-1L32.86,2.34V4.56L56.48,17.61l1.73,1,1.74,1L68,24l1,.54.21.11.77.42.21.12,1,.54L74,27.3l1,.54.21.12.77.42.21.12,1,.53,1.51.84,1,.55,1,.56L111.5,48h3.64v-.2Zm12.33,0-1.73-1-1.74-1-7.61-4.2-1-.54-.21-.12-.76-.42-.21-.12-1-.54L78.88,21l-1-.54-.21-.11-.76-.42-.22-.12-1-.54-6.42-3.55-1-.55-1-.55L40.94,0h-4L67.32,16.78l1,.56,1,.55,4.53,2.5,1,.54.21.12.77.42.21.11,1,.54,2.86,1.58,1,.54.21.12.77.42.21.12,1,.54,5.49,3,1.74,1,1.74,1L115.14,43.2V41Zm-22.9-5.84-1-.54-.21-.12-.94.59.2.12,1,.54L75,26.71l1-.58Zm0,0-1-.54-.21-.12-.94.59.2.12,1,.54L75,26.71l1-.58Z"/><polygon class="cls-3" points="33.72 0 32.86 0 32.86 1.43 32.86 2.34 32.86 3.46 32.86 3.93 32.86 4.56 32.86 5.04 55.6 17.61 57.34 18.57 59.08 19.53 67.61 24.24 67.62 24.24 68.59 24.78 68.8 24.89 69.57 25.32 69.78 25.43 70.75 25.97 73.61 27.55 74.59 28.09 74.8 28.21 75.57 28.63 75.78 28.75 76.75 29.29 78.67 30.35 79.68 30.9 80.68 31.45 110.64 48 111.5 48 112.64 48 113.51 48 115.14 48 115.14 47.8 115.14 44.79 115.14 43.68 91.08 30.39 89.34 29.43 87.61 28.47 82.57 25.69 81.6 25.15 81.39 25.04 80.62 24.61 80.41 24.5 79.44 23.96 76.57 22.38 75.6 21.84 75.39 21.72 74.62 21.3 74.41 21.18 73.44 20.64 69.32 18.37 68.32 17.82 67.32 17.27 36.06 0 34.05 0 33.72 0"/><path class="cls-4" d="M93.09,30.39l-1.74-1-1.74-1-6.09-3.36-1-.55-.21-.11L81.57,24l-.21-.12-1-.54-2.86-1.58-1-.54-.2-.11-.77-.43-.21-.11-1-.54-5.07-2.8-1-.55-1-.56L38.07,0h-4L65.93,17.61l1.74,1,1.65.91,3.17,1.75,1,.54.21.11.77.43.21.11,1,.54,2.86,1.58,1,.54.21.12.76.42.21.12,1,.54,4,2.19,1.74,1,1.74,1,26.06,14.4V42.57Zm-12.33,0-1.08-.6-1-.55-1-.54-1-.54-.21-.11-.77-.43-.21-.11-1-.54L71.7,25.39l-1-.54-.2-.12-.77-.42-.21-.12-1-.54-7.48-4.12-3.47-1.92L32.86,3.93V6.15L53.6,17.61l3.48,1.92,9.59,5.3,1,.53.21.12.77.42.21.12,1,.54,2.86,1.58,1,.54.21.11.76.43.21.11,1,.54,2.86,1.58,1,.56,1,.55L108.62,48h4Z"/><polygon class="cls-3" points="115.14 0 115.14 3.04 91.56 17.61 90.01 18.57 88.45 19.53 82.72 23.07 81.77 23.66 81.36 23.91 80.82 24.24 80.41 24.5 79.47 25.08 76.9 26.67 75.95 27.26 75.54 27.51 75 27.84 74.59 28.09 73.65 28.68 69.32 31.35 68.32 31.97 67.32 32.59 42.38 48 32.86 48 32.86 46.86 59.51 30.39 62.62 28.47 67.64 25.36 68.59 24.78 69 24.53 69.54 24.19 69.95 23.94 70.89 23.36 73.46 21.77 74.41 21.18 74.82 20.93 75.36 20.6 75.77 20.34 76.71 19.76 78.67 18.55 79.68 17.93 80.68 17.31 108.68 0 115.14 0"/><path class="cls-4" d="M89.71,17.61,86.6,19.53l-4.86,3-.95.59-.41.25-.54.33-.41.26-.94.58-2.57,1.59-1,.58-.41.26L74,27.3l-.41.25-.94.59-3.35,2.07-1,.62-1,.62L40.53,48h3.7L67.32,33.73l1-.62,1-.62,5.3-3.27.95-.59.41-.25.54-.33.41-.26.94-.58,2.57-1.59,1-.58.41-.26.54-.33.41-.25.94-.59,6.61-4.08,3.11-1.92L115.14,4.17V1.89ZM106.84,0,80.68,16.17l-1,.62-1,.62-2.93,1.81-.95.58-.4.26-.54.33-.41.25-1,.59-2.57,1.59-1,.58-.4.25L68,24l-.41.25h0l-.94.59-5.9,3.64-3.11,1.92L32.86,45.72V48h0l28.5-17.61,3.11-1.92,4.15-2.57.95-.58.41-.26.54-.33.41-.25.94-.59,2.57-1.58,1-.59.41-.25.54-.33.41-.26.94-.58,1.25-.77,3.11-1.92L110.54,0Z"/><polygon class="cls-3" points="115.14 0 115.14 4.42 93.81 17.61 90.7 19.53 83.9 23.73 82.95 24.32 82.55 24.56 82.01 24.9 81.6 25.15 80.65 25.74 78.08 27.32 77.14 27.91 76.72 28.16 76.19 28.5 75.78 28.75 74.83 29.33 69.32 32.74 68.32 33.36 67.32 33.98 44.63 48 33.26 48 61.76 30.39 64.86 28.47 68.83 26.02 69.78 25.43 70.19 25.18 70.72 24.85 71.13 24.59 72.08 24.01 74.65 22.42 75.6 21.84 76.01 21.59 76.55 21.25 76.95 21 77.9 20.41 79.33 19.53 82.44 17.61 110.93 0 115.14 0"/><path class="cls-4" d="M74.65,22.42,72.08,24l1,.54L75.63,23Zm0,0L72.08,24l1,.54L75.63,23ZM92,17.61l-3.11,1.92-5.92,3.66-1,.58-.41.26-.54.33-.41.25-.94.59-2.57,1.58-1,.59-.41.25-.54.34-.41.25-.94.58L69.32,31.6l-1,.61-1,.63L42.78,48h3.7L67.32,35.12l1-.62,1-.62,6.49-4,.94-.58.41-.26.54-.33.41-.25,1-.59,2.57-1.58.94-.59.41-.25.54-.33.41-.26.95-.58,7.67-4.74,3.11-1.92,19.48-12V3.28ZM74.65,22.42,72.08,24l1,.54L75.63,23Zm0,0L72.08,24l1,.54L75.63,23ZM109.09,0,80.68,17.56l-1,.61-1,.63-1.74,1.08-1,.58-.41.25-.54.34-.41.25-1,.58-2.56,1.59-1,.59-.41.25-.54.33-.41.25-1,.59-4.83,3-3.11,1.92-27,16.72V48h2.25l28.5-17.61,3.1-1.92,3.1-1.91.94-.59.41-.25.54-.33.41-.25,1-.59L75.63,23l.94-.58.41-.26.54-.33.41-.25.95-.59,2.3-1.42,3.11-1.92L112.78,0Z"/><polygon class="cls-3" points="115.14 18.57 115.14 29.43 79.68 29.43 79.68 48 68.32 48 68.32 29.43 32.86 29.43 32.86 18.57 68.32 18.57 68.32 0 79.68 0 79.68 18.57 115.14 18.57"/><path class="cls-4" d="M78.67,28.47V48h2V30.39h34.46V28.47Zm2-10.86V0h-2V19.53h36.47V17.61ZM67.32,0V17.61H32.86v1.92H69.32V0ZM32.86,28.47v1.92H67.32V48h2V28.47Z"/></g></g></svg>