<svg xmlns="http://www.w3.org/2000/svg" xmlns:xlink="http://www.w3.org/1999/xlink" viewBox="0 0 48 48"><defs><style>.cls-1{fill:none;}.cls-2{clip-path:url(#clip-path);}.cls-3{fill:#2d3081;}.cls-4{fill:#e34554;}.cls-5{fill:#fff;}.cls-6{clip-path:url(#clip-path-2);}</style><clipPath id="clip-path"><rect class="cls-1" x="-51" width="48" height="48"/></clipPath><clipPath id="clip-path-2"><rect class="cls-1" width="48" height="48" rx="24"/></clipPath></defs><g id="Inglaterra"><g class="cls-2"><rect class="cls-3" x="-68.14" width="82.29" height="48"/><polygon class="cls-4" points="-67.28 0 -68.14 0 -68.14 1.43 -68.14 2.34 -68.14 3.46 -42.52 17.61 -40.78 18.57 -39.05 19.53 -32.03 23.4 -31.05 23.94 -30.84 24.06 -30.07 24.48 -29.87 24.59 -28.89 25.14 -26.03 26.71 -25.05 27.26 -24.84 27.37 -24.07 27.79 -23.86 27.91 -22.89 28.45 -22.33 28.76 -21.11 29.43 -19.37 30.39 12.51 48 14.14 48 14.14 47.8 14.14 44.79 14.14 43.68 14.14 43.2 14.14 42.57 14.14 42.09 -7.04 30.39 -8.78 29.43 -10.52 28.47 -17.07 24.85 -18.05 24.32 -18.25 24.2 -19.02 23.77 -19.23 23.66 -20.21 23.12 -23.07 21.54 -24.05 21 -24.25 20.88 -25.02 20.46 -25.23 20.34 -26.21 19.8 -31.68 16.79 -32.68 16.23 -33.68 15.68 -62.06 0 -62.93 0 -64.07 0 -64.94 0 -66.95 0 -67.28 0"/><path class="cls-5" d="M-27.94,24.55l-1-.54-.21-.12-.94.59.2.12,1,.54L-26,26.71l1-.58Zm0,0-1-.54-.21-.12-.94.59.2.12,1,.54L-26,26.71l1-.58Zm0,0-1-.54-.21-.12-.94.59.2.12,1,.54L-26,26.71l1-.58Zm10.57,5.84-1.74-1-1.74-1-1.09-.61-1-.53-.21-.12-.76-.43-.21-.11-1-.54-2.86-1.58-1-.54-.21-.12-.76-.42-.22-.12-1-.53-6-3.29-1.74-1-1.74-1L-68.14,2.34V4.56l23.62,13.05,1.73,1,1.74,1L-33,24l1,.54.21.11.77.42.21.12,1,.54L-27,27.3l1,.54.21.12.77.42.21.12,1,.53,1.51.84,1,.55,1,.56L10.5,48h3.64v-.2Zm12.33,0-1.73-1-1.74-1-7.61-4.2-1-.54-.21-.12-.76-.42-.21-.12-1-.54L-22.12,21l-1-.54-.21-.11-.76-.42-.22-.12-1-.54-6.42-3.55-1-.55-1-.55L-60.06,0h-4l30.39,16.78,1,.56,1,.55,4.53,2.5,1,.54.21.12.77.42.21.11,1,.54,2.86,1.58,1,.54.21.12.77.42.21.12,1,.54,5.49,3,1.74,1,1.74,1L14.14,43.2V41Zm-22.9-5.84-1-.54-.21-.12-.94.59.2.12,1,.54L-26,26.71l1-.58Zm0,0-1-.54-.21-.12-.94.59.2.12,1,.54L-26,26.71l1-.58Z"/><polygon class="cls-4" points="-67.28 0 -68.14 0 -68.14 1.43 -68.14 2.34 -68.14 3.46 -68.14 3.93 -68.14 4.56 -68.14 5.04 -45.4 17.61 -43.66 18.57 -41.92 19.53 -33.39 24.24 -33.38 24.24 -32.41 24.78 -32.2 24.89 -31.43 25.32 -31.22 25.43 -30.25 25.97 -27.39 27.55 -26.41 28.09 -26.2 28.21 -25.43 28.63 -25.22 28.75 -24.25 29.29 -22.33 30.35 -21.32 30.9 -20.32 31.45 9.63 48 10.5 48 11.64 48 12.51 48 14.14 48 14.14 47.8 14.14 44.79 14.14 43.68 -9.92 30.39 -11.65 29.43 -13.39 28.47 -18.43 25.69 -19.4 25.15 -19.61 25.04 -20.38 24.61 -20.59 24.5 -21.57 23.96 -24.43 22.38 -25.4 21.84 -25.61 21.72 -26.38 21.3 -26.59 21.18 -27.56 20.64 -31.68 18.37 -32.68 17.82 -33.68 17.27 -64.94 0 -66.95 0 -67.28 0"/><path class="cls-5" d="M-7.91,30.39l-1.74-1-1.74-1-6.09-3.36-1-.55-.21-.11-.77-.42-.21-.12-1-.54-2.86-1.58-1-.54-.2-.11-.77-.43-.21-.11-1-.54-5.07-2.8-1-.55-1-.56L-62.93,0h-4l31.88,17.61,1.74,1,1.65.91,3.17,1.75,1,.54.21.11.77.43.21.11,1,.54,2.86,1.58,1,.54.21.12.76.42.21.12,1,.54,4,2.19,1.74,1,1.74,1,26.06,14.4V42.57Zm-12.33,0-1.08-.6-1-.55-1-.54-1-.54-.21-.11-.77-.43-.21-.11-1-.54-2.86-1.58-1-.54-.2-.12-.77-.42-.21-.12-1-.54-7.48-4.12-3.47-1.92L-68.14,3.93V6.15L-47.4,17.61l3.48,1.92,9.59,5.3,1,.53.21.12.77.42.21.12,1,.54,2.86,1.58,1,.54.21.11.76.43.21.11,1,.54,2.86,1.58,1,.56,1,.55L7.62,48h4Z"/><polygon class="cls-4" points="14.14 0 14.14 3.04 -9.44 17.61 -10.99 18.57 -12.55 19.53 -18.28 23.07 -19.23 23.66 -19.64 23.91 -20.18 24.24 -20.59 24.5 -21.53 25.08 -24.1 26.67 -25.05 27.26 -25.46 27.51 -26 27.84 -26.41 28.09 -27.35 28.68 -31.68 31.35 -32.68 31.97 -33.68 32.59 -58.62 48 -68.14 48 -68.14 46.86 -41.49 30.39 -38.38 28.47 -33.36 25.36 -32.41 24.78 -32 24.53 -31.46 24.19 -31.05 23.94 -30.11 23.36 -27.54 21.77 -26.59 21.18 -26.18 20.93 -25.64 20.6 -25.23 20.34 -24.29 19.76 -22.33 18.55 -21.32 17.93 -20.32 17.31 7.68 0 14.14 0"/><path class="cls-5" d="M-11.29,17.61l-3.11,1.92-4.86,3-.95.59-.41.25-.54.33-.41.26-.94.58-2.57,1.59-1,.58-.41.26-.54.33-.41.25-.94.59-3.35,2.07-1,.62-1,.62L-60.47,48h3.7l23.09-14.27,1-.62,1-.62,5.3-3.27.95-.59.41-.25.54-.33.41-.26.94-.58,2.57-1.59.95-.58.41-.26.54-.33.41-.25.94-.59,6.61-4.08,3.11-1.92L14.14,4.17V1.89ZM5.84,0-20.32,16.17l-1,.62-1,.62-2.93,1.81-.95.58-.4.26-.54.33-.41.25-1,.59-2.57,1.59-1,.58-.4.25L-33,24l-.41.25h0l-.94.59-5.9,3.64-3.11,1.92-24.8,15.33V48h0l28.5-17.61,3.11-1.92,4.15-2.57,1-.58.41-.26.54-.33.41-.25.94-.59,2.57-1.58.95-.59.41-.25.54-.33.41-.26.94-.58,1.25-.77,3.11-1.92L9.54,0Z"/><polygon class="cls-4" points="14.14 0 14.14 4.42 -7.19 17.61 -10.3 19.53 -17.1 23.73 -18.05 24.32 -18.45 24.56 -18.99 24.9 -19.4 25.15 -20.35 25.74 -22.92 27.32 -23.86 27.91 -24.27 28.16 -24.81 28.5 -25.22 28.75 -26.17 29.33 -31.68 32.74 -32.68 33.36 -33.68 33.98 -56.37 48 -67.74 48 -39.24 30.39 -36.14 28.47 -32.17 26.02 -31.22 25.43 -30.81 25.18 -30.27 24.85 -29.87 24.59 -28.92 24.01 -26.35 22.42 -25.4 21.84 -24.99 21.59 -24.45 21.25 -24.05 21 -23.1 20.41 -21.67 19.53 -18.56 17.61 9.93 0 14.14 0"/><path class="cls-5" d="M-26.35,22.42-28.92,24l1,.54L-25.37,23Zm0,0L-28.92,24l1,.54L-25.37,23ZM-9,17.61l-3.11,1.92-5.92,3.66-.95.58-.41.26-.54.33-.41.25-.94.59-2.57,1.58-.95.59-.41.25-.54.34-.41.25-.94.58-4.54,2.81-1,.61-1,.63L-58.22,48h3.7l20.84-12.88,1-.62,1-.62,6.49-4,.94-.58.41-.26.54-.33.41-.25.95-.59,2.57-1.58.94-.59.41-.25.54-.33.41-.26.95-.58,7.67-4.74,3.11-1.92,19.48-12V3.28Zm-17.31,4.81L-28.92,24l1,.54L-25.37,23Zm0,0L-28.92,24l1,.54L-25.37,23ZM8.09,0-20.32,17.56l-1,.61-1,.63-1.74,1.08-.95.58-.41.25-.54.34-.41.25-.95.58-2.56,1.59-.95.59-.41.25-.54.33-.41.25-.95.59-4.83,3-3.11,1.92-27,16.72V48h2.25l28.5-17.61,3.1-1.92,3.1-1.91.94-.59.41-.25.54-.33.41-.25.95-.59L-25.37,23l.94-.58.41-.26.54-.33.41-.25.95-.59,2.3-1.42,3.11-1.92L11.78,0Z"/><polygon class="cls-4" points="14.14 18.57 14.14 29.43 -21.32 29.43 -21.32 48 -32.68 48 -32.68 29.43 -68.14 29.43 -68.14 18.57 -32.68 18.57 -32.68 0 -21.32 0 -21.32 18.57 14.14 18.57"/><path class="cls-5" d="M-22.33,28.47V48h2V30.39H14.14V28.47Zm2-10.86V0h-2V19.53H14.14V17.61ZM-33.68,0V17.61H-68.14v1.92h36.46V0ZM-68.14,28.47v1.92h34.46V48h2V28.47Z"/></g><g class="cls-6"><rect class="cls-3" x="-17.14" width="82.29" height="48"/><polygon class="cls-4" points="-16.28 0 -17.14 0 -17.14 1.43 -17.14 2.34 -17.14 3.46 8.48 17.61 10.22 18.57 11.95 19.53 18.97 23.4 19.95 23.94 20.16 24.06 20.93 24.48 21.13 24.59 22.11 25.14 24.97 26.71 25.95 27.26 26.16 27.37 26.93 27.79 27.14 27.91 28.11 28.45 28.67 28.76 29.89 29.43 31.63 30.39 63.51 48 65.14 48 65.14 47.8 65.14 44.79 65.14 43.68 65.14 43.2 65.14 42.57 65.14 42.09 43.96 30.39 42.22 29.43 40.48 28.47 33.93 24.85 32.95 24.32 32.75 24.2 31.98 23.77 31.77 23.66 30.79 23.12 27.93 21.54 26.95 21 26.75 20.88 25.98 20.46 25.77 20.34 24.79 19.8 19.32 16.79 18.32 16.23 17.32 15.68 -11.06 0 -11.93 0 -13.07 0 -13.94 0 -15.95 0 -16.28 0"/><path class="cls-5" d="M23.06,24.55l-1-.54-.21-.12-.94.59.2.12,1,.54L25,26.71l1-.58Zm0,0-1-.54-.21-.12-.94.59.2.12,1,.54L25,26.71l1-.58Zm0,0-1-.54-.21-.12-.94.59.2.12,1,.54L25,26.71l1-.58Zm10.57,5.84-1.74-1-1.74-1-1.09-.61-1-.53-.21-.12-.76-.43-.21-.11-1-.54-2.86-1.58-1-.54-.21-.12-.76-.42-.22-.12-1-.53-6-3.29-1.74-1-1.74-1L-17.14,2.34V4.56L6.48,17.61l1.73,1,1.74,1L18,24l1,.54.21.11.77.42.21.12,1,.54L24,27.3l1,.54.21.12.77.42.21.12,1,.53,1.51.84,1,.55,1,.56L61.5,48h3.64v-.2Zm12.33,0-1.73-1-1.74-1-7.61-4.2-1-.54-.21-.12-.76-.42-.21-.12-1-.54L28.88,21l-1-.54-.21-.11-.76-.42-.22-.12-1-.54-6.42-3.55-1-.55-1-.55L-9.06,0h-4L17.32,16.78l1,.56,1,.55,4.53,2.5,1,.54.21.12.77.42.21.11,1,.54,2.86,1.58,1,.54.21.12.77.42.21.12,1,.54,5.49,3,1.74,1,1.74,1L65.14,43.2V41Zm-22.9-5.84-1-.54-.21-.12-.94.59.2.12,1,.54L25,26.71l1-.58Zm0,0-1-.54-.21-.12-.94.59.2.12,1,.54L25,26.71l1-.58Z"/><polygon class="cls-4" points="-16.28 0 -17.14 0 -17.14 1.43 -17.14 2.34 -17.14 3.46 -17.14 3.93 -17.14 4.56 -17.14 5.04 5.6 17.61 7.34 18.57 9.08 19.53 17.61 24.24 17.62 24.24 18.59 24.78 18.8 24.89 19.57 25.32 19.78 25.43 20.75 25.97 23.61 27.55 24.59 28.09 24.8 28.21 25.57 28.63 25.78 28.75 26.75 29.29 28.67 30.35 29.68 30.9 30.68 31.45 60.63 48 61.5 48 62.64 48 63.51 48 65.14 48 65.14 47.8 65.14 44.79 65.14 43.68 41.08 30.39 39.34 29.43 37.61 28.47 32.57 25.69 31.6 25.15 31.39 25.04 30.62 24.61 30.41 24.5 29.43 23.96 26.57 22.38 25.6 21.84 25.39 21.72 24.62 21.3 24.41 21.18 23.44 20.64 19.32 18.37 18.32 17.82 17.32 17.27 -13.94 0 -15.95 0 -16.28 0"/><path class="cls-5" d="M43.09,30.39l-1.74-1-1.74-1-6.09-3.36-1-.55-.21-.11L31.57,24l-.21-.12-1-.54-2.86-1.58-1-.54-.2-.11-.77-.43-.21-.11-1-.54-5.07-2.8-1-.55-1-.56L-11.93,0h-4L15.93,17.61l1.74,1,1.65.91,3.17,1.75,1,.54.21.11.77.43.21.11,1,.54,2.86,1.58,1,.54.21.12.76.42.21.12,1,.54,4,2.19,1.74,1,1.74,1,26.06,14.4V42.57Zm-12.33,0-1.08-.6-1-.55-1-.54-1-.54-.21-.11-.77-.43-.21-.11-1-.54L21.7,25.39l-1-.54-.2-.12-.77-.42-.21-.12-1-.54-7.48-4.12L7.62,17.61-17.14,3.93V6.15L3.6,17.61l3.48,1.92,9.59,5.3,1,.53.21.12.77.42.21.12,1,.54,2.86,1.58,1,.54.21.11.76.43.21.11,1,.54,2.86,1.58,1,.56,1,.55L58.62,48h4Z"/><polygon class="cls-4" points="65.14 0 65.14 3.04 41.56 17.61 40.01 18.57 38.45 19.53 32.72 23.07 31.77 23.66 31.36 23.91 30.82 24.24 30.41 24.5 29.47 25.08 26.9 26.67 25.95 27.26 25.54 27.51 25 27.84 24.59 28.09 23.65 28.68 19.32 31.35 18.32 31.97 17.32 32.59 -7.62 48 -17.14 48 -17.14 46.86 9.51 30.39 12.62 28.47 17.64 25.36 18.59 24.78 19 24.53 19.54 24.19 19.95 23.94 20.89 23.36 23.46 21.77 24.41 21.18 24.82 20.93 25.36 20.6 25.77 20.34 26.71 19.76 28.67 18.55 29.68 17.93 30.68 17.31 58.68 0 65.14 0"/><path class="cls-5" d="M39.71,17.61,36.6,19.53l-4.86,3-.95.59-.41.25-.54.33-.41.26-.94.58-2.57,1.59-1,.58-.41.26L24,27.3l-.41.25-.94.59-3.35,2.07-1,.62-1,.62L-9.47,48h3.7L17.32,33.73l1-.62,1-.62,5.3-3.27.95-.59.41-.25.54-.33.41-.26.94-.58,2.57-1.59.95-.58.41-.26.54-.33.41-.25.94-.59,6.61-4.08,3.11-1.92L65.14,4.17V1.89ZM56.84,0,30.68,16.17l-1,.62-1,.62-2.93,1.81-.95.58-.4.26-.54.33-.41.25-1,.59-2.57,1.59-1,.58-.4.25L18,24l-.41.25h0l-.94.59-5.9,3.64L7.66,30.39l-24.8,15.33V48h0l28.5-17.61,3.11-1.92,4.15-2.57.95-.58.41-.26.54-.33.41-.25.94-.59,2.57-1.58.95-.59.41-.25.54-.33.41-.26.94-.58,1.25-.77,3.11-1.92L60.54,0Z"/><polygon class="cls-4" points="65.14 0 65.14 4.42 43.81 17.61 40.7 19.53 33.9 23.73 32.95 24.32 32.55 24.56 32.01 24.9 31.6 25.15 30.65 25.74 28.08 27.32 27.14 27.91 26.73 28.16 26.19 28.5 25.78 28.75 24.83 29.33 19.32 32.74 18.32 33.36 17.32 33.98 -5.37 48 -16.74 48 11.76 30.39 14.86 28.47 18.83 26.02 19.78 25.43 20.19 25.18 20.73 24.85 21.13 24.59 22.08 24.01 24.65 22.42 25.6 21.84 26.01 21.59 26.55 21.25 26.95 21 27.9 20.41 29.33 19.53 32.44 17.61 60.93 0 65.14 0"/><path class="cls-5" d="M24.65,22.42,22.08,24l1,.54L25.63,23Zm0,0L22.08,24l1,.54L25.63,23ZM42,17.61l-3.11,1.92-5.92,3.66-.95.58-.41.26-.54.33-.41.25-.94.59-2.57,1.58-.95.59-.41.25-.54.34-.41.25-.94.58L19.32,31.6l-1,.61-1,.63L-7.22,48h3.7L17.32,35.12l1-.62,1-.62,6.49-4,.94-.58.41-.26.54-.33.41-.25.95-.59,2.57-1.58.94-.59.41-.25.54-.33.41-.26,1-.58,7.67-4.74,3.11-1.92,19.48-12V3.28ZM24.65,22.42,22.08,24l1,.54L25.63,23Zm0,0L22.08,24l1,.54L25.63,23ZM59.09,0,30.68,17.56l-1,.61-1,.63-1.74,1.08-.95.58-.41.25-.54.34-.41.25-.95.58-2.56,1.59-.95.59-.41.25-.54.33-.41.25-.95.59-4.83,3L9.91,30.39l-27,16.72V48h2.25l28.5-17.61,3.1-1.92,3.1-1.91.94-.59.41-.25.54-.33.41-.25.95-.59L25.63,23l.94-.58.41-.26.54-.33.41-.25.95-.59,2.3-1.42,3.11-1.92L62.78,0Z"/><polygon class="cls-4" points="65.14 18.57 65.14 29.43 29.68 29.43 29.68 48 18.32 48 18.32 29.43 -17.14 29.43 -17.14 18.57 18.32 18.57 18.32 0 29.68 0 29.68 18.57 65.14 18.57"/><path class="cls-5" d="M28.67,28.47V48h2V30.39H65.14V28.47Zm2-10.86V0h-2V19.53H65.14V17.61ZM17.32,0V17.61H-17.14v1.92H19.32V0ZM-17.14,28.47v1.92H17.32V48h2V28.47Z"/></g></g></svg>