<svg xmlns="http://www.w3.org/2000/svg" xmlns:xlink="http://www.w3.org/1999/xlink" viewBox="0 0 48 48"><defs><style>.cls-1{fill:none;}.cls-2{clip-path:url(#clip-path);}.cls-3{fill:#2d3081;}.cls-4{fill:#e34554;}.cls-5{fill:#fff;}.cls-6{clip-path:url(#clip-path-2);}</style><clipPath id="clip-path"><rect class="cls-1" width="48" height="48"/></clipPath><clipPath id="clip-path-2"><rect class="cls-1" x="51" width="48" height="48" rx="24"/></clipPath></defs><g id="Inglaterra"><g class="cls-2"><rect class="cls-3" x="-17.14" width="82.29" height="48"/><polygon class="cls-4" points="-16.28 0 -17.14 0 -17.14 1.43 -17.14 2.34 -17.14 3.46 8.48 17.61 10.22 18.57 11.95 19.53 18.97 23.4 19.95 23.94 20.16 24.06 20.93 24.48 21.13 24.59 22.11 25.14 24.97 26.71 25.95 27.26 26.16 27.37 26.93 27.79 27.14 27.91 28.11 28.45 28.67 28.76 29.89 29.43 31.63 30.39 63.51 48 65.14 48 65.14 47.8 65.14 44.79 65.14 43.68 65.14 43.2 65.14 42.57 65.14 42.09 43.96 30.39 42.22 29.43 40.48 28.47 33.93 24.85 32.95 24.32 32.75 24.2 31.98 23.77 31.77 23.66 30.79 23.12 27.93 21.54 26.95 21 26.75 20.88 25.98 20.46 25.77 20.34 24.79 19.8 19.32 16.79 18.32 16.23 17.32 15.68 -11.06 0 -11.93 0 -13.07 0 -13.94 0 -15.95 0 -16.28 0"/><path class="cls-5" d="M23.06,24.55l-1-.54-.21-.12-.94.59.2.12,1,.54L25,26.71l1-.58Zm0,0-1-.54-.21-.12-.94.59.2.12,1,.54L25,26.71l1-.58Zm0,0-1-.54-.21-.12-.94.59.2.12,1,.54L25,26.71l1-.58Zm10.57,5.84-1.74-1-1.74-1-1.09-.61-1-.53-.21-.12-.76-.43-.21-.11-1-.54-2.86-1.58-1-.54-.21-.12-.76-.42-.22-.12-1-.53-6-3.29-1.74-1-1.74-1L-17.14,2.34V4.56L6.48,17.61l1.73,1,1.74,1L18,24l1,.54.21.11.77.42.21.12,1,.54L24,27.3l1,.54.21.12.77.42.21.12,1,.53,1.51.84,1,.55,1,.56L61.5,48h3.64v-.2Zm12.33,0-1.73-1-1.74-1-7.61-4.2-1-.54-.21-.12-.76-.42-.21-.12-1-.54L28.88,21l-1-.54-.21-.11-.76-.42-.22-.12-1-.54-6.42-3.55-1-.55-1-.55L-9.06,0h-4L17.32,16.78l1,.56,1,.55,4.53,2.5,1,.54.21.12.77.42.21.11,1,.54,2.86,1.58,1,.54.21.12.77.42.21.12,1,.54,5.49,3,1.74,1,1.74,1L65.14,43.2V41Zm-22.9-5.84-1-.54-.21-.12-.94.59.2.12,1,.54L25,26.71l1-.58Zm0,0-1-.54-.21-.12-.94.59.2.12,1,.54L25,26.71l1-.58Z"/><polygon class="cls-4" points="-16.28 0 -17.14 0 -17.14 1.43 -17.14 2.34 -17.14 3.46 -17.14 3.93 -17.14 4.56 -17.14 5.04 5.6 17.61 7.34 18.57 9.08 19.53 17.61 24.24 17.62 24.24 18.59 24.78 18.8 24.89 19.57 25.32 19.78 25.43 20.75 25.97 23.61 27.55 24.59 28.09 24.8 28.21 25.57 28.63 25.78 28.75 26.75 29.29 28.67 30.35 29.68 30.9 30.68 31.45 60.63 48 61.5 48 62.64 48 63.51 48 65.14 48 65.14 47.8 65.14 44.79 65.14 43.68 41.08 30.39 39.34 29.43 37.61 28.47 32.57 25.69 31.6 25.15 31.39 25.04 30.62 24.61 30.41 24.5 29.43 23.96 26.57 22.38 25.6 21.84 25.39 21.72 24.62 21.3 24.41 21.18 23.44 20.64 19.32 18.37 18.32 17.82 17.32 17.27 -13.94 0 -15.95 0 -16.28 0"/><path class="cls-5" d="M43.09,30.39l-1.74-1-1.74-1-6.09-3.36-1-.55-.21-.11L31.57,24l-.21-.12-1-.54-2.86-1.58-1-.54-.2-.11-.77-.43-.21-.11-1-.54-5.07-2.8-1-.55-1-.56L-11.93,0h-4L15.93,17.61l1.74,1,1.65.91,3.17,1.75,1,.54.21.11.77.43.21.11,1,.54,2.86,1.58,1,.54.21.12.76.42.21.12,1,.54,4,2.19,1.74,1,1.74,1,26.06,14.4V42.57Zm-12.33,0-1.08-.6-1-.55-1-.54-1-.54-.21-.11-.77-.43-.21-.11-1-.54L21.7,25.39l-1-.54-.2-.12-.77-.42-.21-.12-1-.54-7.48-4.12L7.62,17.61-17.14,3.93V6.15L3.6,17.61l3.48,1.92,9.59,5.3,1,.53.21.12.77.42.21.12,1,.54,2.86,1.58,1,.54.21.11.76.43.21.11,1,.54,2.86,1.58,1,.56,1,.55L58.62,48h4Z"/><polygon class="cls-4" points="65.14 0 65.14 3.04 41.56 17.61 40.01 18.57 38.45 19.53 32.72 23.07 31.77 23.66 31.36 23.91 30.82 24.24 30.41 24.5 29.47 25.08 26.9 26.67 25.95 27.26 25.54 27.51 25 27.84 24.59 28.09 23.65 28.68 19.32 31.35 18.32 31.97 17.32 32.59 -7.62 48 -17.14 48 -17.14 46.86 9.51 30.39 12.62 28.47 17.64 25.36 18.59 24.78 19 24.53 19.54 24.19 19.95 23.94 20.89 23.36 23.46 21.77 24.41 21.18 24.82 20.93 25.36 20.6 25.77 20.34 26.71 19.76 28.67 18.55 29.68 17.93 30.68 17.31 58.68 0 65.14 0"/><path class="cls-5" d="M39.71,17.61,36.6,19.53l-4.86,3-.95.59-.41.25-.54.33-.41.26-.94.58-2.57,1.59-1,.58-.41.26L24,27.3l-.41.25-.94.59-3.35,2.07-1,.62-1,.62L-9.47,48h3.7L17.32,33.73l1-.62,1-.62,5.3-3.27.95-.59.41-.25.54-.33.41-.26.94-.58,2.57-1.59.95-.58.41-.26.54-.33.41-.25.94-.59,6.61-4.08,3.11-1.92L65.14,4.17V1.89ZM56.84,0,30.68,16.17l-1,.62-1,.62-2.93,1.81-.95.58-.4.26-.54.33-.41.25-1,.59-2.57,1.59-1,.58-.4.25L18,24l-.41.25h0l-.94.59-5.9,3.64L7.66,30.39l-24.8,15.33V48h0l28.5-17.61,3.11-1.92,4.15-2.57.95-.58.41-.26.54-.33.41-.25.94-.59,2.57-1.58.95-.59.41-.25.54-.33.41-.26.94-.58,1.25-.77,3.11-1.92L60.54,0Z"/><polygon class="cls-4" points="65.14 0 65.14 4.42 43.81 17.61 40.7 19.53 33.9 23.73 32.95 24.32 32.55 24.56 32.01 24.9 31.6 25.15 30.65 25.74 28.08 27.32 27.14 27.91 26.73 28.16 26.19 28.5 25.78 28.75 24.83 29.33 19.32 32.74 18.32 33.36 17.32 33.98 -5.37 48 -16.74 48 11.76 30.39 14.86 28.47 18.83 26.02 19.78 25.43 20.19 25.18 20.73 24.85 21.13 24.59 22.08 24.01 24.65 22.42 25.6 21.84 26.01 21.59 26.55 21.25 26.95 21 27.9 20.41 29.33 19.53 32.44 17.61 60.93 0 65.14 0"/><path class="cls-5" d="M24.65,22.42,22.08,24l1,.54L25.63,23Zm0,0L22.08,24l1,.54L25.63,23ZM42,17.61l-3.11,1.92-5.92,3.66-.95.58-.41.26-.54.33-.41.25-.94.59-2.57,1.58-.95.59-.41.25-.54.34-.41.25-.94.58L19.32,31.6l-1,.61-1,.63L-7.22,48h3.7L17.32,35.12l1-.62,1-.62,6.49-4,.94-.58.41-.26.54-.33.41-.25.95-.59,2.57-1.58.94-.59.41-.25.54-.33.41-.26,1-.58,7.67-4.74,3.11-1.92,19.48-12V3.28ZM24.65,22.42,22.08,24l1,.54L25.63,23Zm0,0L22.08,24l1,.54L25.63,23ZM59.09,0,30.68,17.56l-1,.61-1,.63-1.74,1.08-.95.58-.41.25-.54.34-.41.25-.95.58-2.56,1.59-.95.59-.41.25-.54.33-.41.25-.95.59-4.83,3L9.91,30.39l-27,16.72V48h2.25l28.5-17.61,3.1-1.92,3.1-1.91.94-.59.41-.25.54-.33.41-.25.95-.59L25.63,23l.94-.58.41-.26.54-.33.41-.25.95-.59,2.3-1.42,3.11-1.92L62.78,0Z"/><polygon class="cls-4" points="65.14 18.57 65.14 29.43 29.68 29.43 29.68 48 18.32 48 18.32 29.43 -17.14 29.43 -17.14 18.57 18.32 18.57 18.32 0 29.68 0 29.68 18.57 65.14 18.57"/><path class="cls-5" d="M28.67,28.47V48h2V30.39H65.14V28.47Zm2-10.86V0h-2V19.53H65.14V17.61ZM17.32,0V17.61H-17.14v1.92H19.32V0ZM-17.14,28.47v1.92H17.32V48h2V28.47Z"/></g><g class="cls-6"><rect class="cls-3" x="33.86" width="82.29" height="48"/><polygon class="cls-4" points="34.72 0 33.86 0 33.86 1.43 33.86 2.34 33.86 3.46 59.48 17.61 61.22 18.57 62.95 19.53 69.97 23.4 70.95 23.94 71.16 24.06 71.92 24.48 72.13 24.59 73.11 25.14 75.97 26.71 76.95 27.26 77.16 27.37 77.93 27.79 78.14 27.91 79.11 28.45 79.67 28.76 80.89 29.43 82.63 30.39 114.51 48 116.14 48 116.14 47.8 116.14 44.79 116.14 43.68 116.14 43.2 116.14 42.57 116.14 42.09 94.96 30.39 93.22 29.43 91.48 28.47 84.93 24.85 83.95 24.32 83.75 24.2 82.98 23.77 82.77 23.66 81.79 23.12 78.93 21.54 77.95 21 77.75 20.88 76.98 20.46 76.77 20.34 75.79 19.8 70.32 16.79 69.32 16.23 68.32 15.68 39.94 0 39.07 0 37.93 0 37.06 0 35.05 0 34.72 0"/><path class="cls-5" d="M74.06,24.55l-1-.54-.21-.12-.94.59.2.12,1,.54L76,26.71l1-.58Zm0,0-1-.54-.21-.12-.94.59.2.12,1,.54L76,26.71l1-.58Zm0,0-1-.54-.21-.12-.94.59.2.12,1,.54L76,26.71l1-.58Zm10.57,5.84-1.74-1-1.74-1-1.09-.61-1-.53-.21-.12-.76-.43-.21-.11-1-.54-2.86-1.58-1-.54-.21-.12-.76-.42-.22-.12-1-.53-6-3.29-1.74-1-1.74-1L33.86,2.34V4.56L57.48,17.61l1.73,1,1.74,1L69,24l1,.54.21.11.77.42.21.12,1,.54L75,27.3l1,.54.21.12.77.42.21.12,1,.53,1.51.84,1,.55,1,.56L112.5,48h3.64v-.2Zm12.33,0-1.73-1-1.74-1-7.61-4.2-1-.54-.21-.12-.76-.42-.21-.12-1-.54L79.88,21l-1-.54-.21-.11-.76-.42-.22-.12-1-.54-6.42-3.55-1-.55-1-.55L41.94,0h-4L68.32,16.78l1,.56,1,.55,4.53,2.5,1,.54.21.12.77.42.21.11,1,.54,2.86,1.58,1,.54.21.12.77.42.21.12,1,.54,5.49,3,1.74,1,1.74,1L116.14,43.2V41Zm-22.9-5.84-1-.54-.21-.12-.94.59.2.12,1,.54L76,26.71l1-.58Zm0,0-1-.54-.21-.12-.94.59.2.12,1,.54L76,26.71l1-.58Z"/><polygon class="cls-4" points="34.72 0 33.86 0 33.86 1.43 33.86 2.34 33.86 3.46 33.86 3.93 33.86 4.56 33.86 5.04 56.6 17.61 58.34 18.57 60.08 19.53 68.61 24.24 68.62 24.24 69.59 24.78 69.8 24.89 70.57 25.32 70.78 25.43 71.75 25.97 74.61 27.55 75.59 28.09 75.8 28.21 76.57 28.63 76.78 28.75 77.75 29.29 79.67 30.35 80.68 30.9 81.68 31.45 111.64 48 112.5 48 113.64 48 114.51 48 116.14 48 116.14 47.8 116.14 44.79 116.14 43.68 92.08 30.39 90.34 29.43 88.61 28.47 83.57 25.69 82.6 25.15 82.39 25.04 81.62 24.61 81.41 24.5 80.44 23.96 77.57 22.38 76.6 21.84 76.39 21.72 75.62 21.3 75.41 21.18 74.44 20.64 70.32 18.37 69.32 17.82 68.32 17.27 37.06 0 35.05 0 34.72 0"/><path class="cls-5" d="M94.09,30.39l-1.74-1-1.74-1-6.09-3.36-1-.55-.21-.11L82.57,24l-.21-.12-1-.54-2.86-1.58-1-.54-.2-.11-.77-.43-.21-.11-1-.54-5.07-2.8-1-.55-1-.56L39.07,0h-4L66.93,17.61l1.74,1,1.65.91,3.17,1.75,1,.54.21.11.77.43.21.11,1,.54,2.86,1.58,1,.54.21.12.76.42.21.12,1,.54,4,2.19,1.74,1,1.74,1,26.06,14.4V42.57Zm-12.33,0-1.08-.6-1-.55-1-.54-1-.54-.21-.11-.77-.43-.21-.11-1-.54L72.7,25.39l-1-.54-.2-.12-.77-.42-.21-.12-1-.54-7.48-4.12-3.47-1.92L33.86,3.93V6.15L54.6,17.61l3.48,1.92,9.59,5.3,1,.53.21.12.77.42.21.12,1,.54,2.86,1.58,1,.54.21.11.76.43.21.11,1,.54,2.86,1.58,1,.56,1,.55L109.62,48h4Z"/><polygon class="cls-4" points="116.14 0 116.14 3.04 92.56 17.61 91.01 18.57 89.45 19.53 83.72 23.07 82.77 23.66 82.36 23.91 81.82 24.24 81.41 24.5 80.47 25.08 77.9 26.67 76.95 27.26 76.54 27.51 76 27.84 75.59 28.09 74.65 28.68 70.32 31.35 69.32 31.97 68.32 32.59 43.38 48 33.86 48 33.86 46.86 60.51 30.39 63.62 28.47 68.64 25.36 69.59 24.78 70 24.53 70.54 24.19 70.95 23.94 71.89 23.36 74.46 21.77 75.41 21.18 75.82 20.93 76.36 20.6 76.77 20.34 77.71 19.76 79.67 18.55 80.68 17.93 81.68 17.31 109.68 0 116.14 0"/><path class="cls-5" d="M90.71,17.61,87.6,19.53l-4.86,3-.95.59-.41.25-.54.33-.41.26-.94.58-2.57,1.59-1,.58-.41.26L75,27.3l-.41.25-.94.59-3.35,2.07-1,.62-1,.62L41.53,48h3.7L68.32,33.73l1-.62,1-.62,5.3-3.27.95-.59.41-.25.54-.33.41-.26.94-.58,2.57-1.59,1-.58.41-.26.54-.33.41-.25.94-.59,6.61-4.08,3.11-1.92L116.14,4.17V1.89ZM107.84,0,81.68,16.17l-1,.62-1,.62-2.93,1.81-.95.58-.4.26-.54.33-.41.25-1,.59-2.57,1.59-1,.58-.4.25L69,24l-.41.25h0l-.94.59-5.9,3.64-3.11,1.92L33.86,45.72V48h0l28.5-17.61,3.11-1.92,4.15-2.57.95-.58.41-.26.54-.33.41-.25.94-.59,2.57-1.58,1-.59.41-.25.54-.33.41-.26.94-.58,1.25-.77,3.11-1.92L111.54,0Z"/><polygon class="cls-4" points="116.14 0 116.14 4.42 94.81 17.61 91.7 19.53 84.9 23.73 83.95 24.32 83.55 24.56 83.01 24.9 82.6 25.15 81.65 25.74 79.08 27.32 78.14 27.91 77.72 28.16 77.19 28.5 76.78 28.75 75.83 29.33 70.32 32.74 69.32 33.36 68.32 33.98 45.63 48 34.26 48 62.76 30.39 65.86 28.47 69.83 26.02 70.78 25.43 71.19 25.18 71.72 24.85 72.13 24.59 73.08 24.01 75.65 22.42 76.6 21.84 77.01 21.59 77.55 21.25 77.95 21 78.9 20.41 80.33 19.53 83.44 17.61 111.93 0 116.14 0"/><path class="cls-5" d="M75.65,22.42,73.08,24l1,.54L76.63,23Zm0,0L73.08,24l1,.54L76.63,23ZM93,17.61l-3.11,1.92-5.92,3.66-1,.58-.41.26-.54.33-.41.25-.94.59-2.57,1.58-1,.59-.41.25-.54.34-.41.25-.94.58L70.32,31.6l-1,.61-1,.63L43.78,48h3.7L68.32,35.12l1-.62,1-.62,6.49-4,.94-.58.41-.26.54-.33.41-.25,1-.59,2.57-1.58.94-.59.41-.25.54-.33.41-.26.95-.58,7.67-4.74,3.11-1.92,19.48-12V3.28ZM75.65,22.42,73.08,24l1,.54L76.63,23Zm0,0L73.08,24l1,.54L76.63,23ZM110.09,0,81.68,17.56l-1,.61-1,.63-1.74,1.08-1,.58-.41.25-.54.34-.41.25-1,.58-2.56,1.59-1,.59-.41.25-.54.33-.41.25-1,.59-4.83,3-3.11,1.92-27,16.72V48h2.25l28.5-17.61,3.1-1.92,3.1-1.91.94-.59.41-.25.54-.33.41-.25,1-.59L76.63,23l.94-.58.41-.26.54-.33.41-.25.95-.59,2.3-1.42,3.11-1.92L113.78,0Z"/><polygon class="cls-4" points="116.14 18.57 116.14 29.43 80.68 29.43 80.68 48 69.32 48 69.32 29.43 33.86 29.43 33.86 18.57 69.32 18.57 69.32 0 80.68 0 80.68 18.57 116.14 18.57"/><path class="cls-5" d="M79.67,28.47V48h2V30.39h34.46V28.47Zm2-10.86V0h-2V19.53h36.47V17.61ZM68.32,0V17.61H33.86v1.92H70.32V0ZM33.86,28.47v1.92H68.32V48h2V28.47Z"/></g></g></svg>