<?xml version="1.0" encoding="UTF-8"?><svg xmlns="http://www.w3.org/2000/svg" viewBox="0 0 1000 1000"><defs><style>.cls-1{isolation:isolate;}.cls-2{fill:rgba(255,121,0,.7);}.cls-3{opacity:.3;}.cls-4{fill:red;}.cls-4,.cls-5,.cls-6{mix-blend-mode:multiply;}.cls-5{fill:lime;}.cls-5,.cls-6{opacity:.5;}.cls-7{fill:#b3b3b3;}.cls-6{fill:aqua;}</style></defs><g class="cls-1"><g id="Capa_1"><rect width="1000" height="1000"/><g><path class="cls-7" d="M899.94,497.31s-.01-.09-.02-.13c0-.03,0-.06-.01-.1-.01-.04-.02-.09-.02-.13-.15-2.62-.56-5.17-1.09-7.69-.39-1.99-.87-3.94-1.45-5.85-.05-.17-.11-.33-.15-.48-2.73-8.9-7.53-16.87-13.99-23.32-8.43-8.43-19.58-14.01-31.99-15.8-.02,0-.04,0-.06-.01-1.16-.16-2.31-.29-3.49-.4-1.25-.17-2.51-.29-3.78-.39-.34,0-.66-.1-1.02-.1h-1.01c-.74-.03-1.48-.12-2.23-.12h-54.79c-9.9,0-18.9-5.34-23.71-13.78l-.29-.5c-.41-.75-.78-1.52-1.11-2.32l-.77-1.85c-4.26-11.19-1-22.94,6.65-30.5,.18-.18,.36-.35,.56-.54,.25-.23,.5-.45,.76-.67,.13-.11,.25-.22,.38-.33,.28-.24,.57-.47,.85-.69,.49-.38,.98-.75,1.49-1.1,.28-.19,.57-.37,.86-.56,.86-.55,1.75-1.03,2.66-1.47,.24-.12,.47-.22,.71-.32,.22-.12,.46-.21,.69-.3,.75-.31,1.52-.6,2.31-.86,.13-.04,.27-.09,.41-.12,.3-.1,.61-.18,.92-.27,.03-.01,.05-.02,.09-.02,.4-.11,.8-.2,1.21-.29,.92-.2,1.87-.35,2.84-.46,.18-.02,.36-.04,.55-.05,.39-.04,.76-.06,1.15-.09h.04c.5-.03,1.01-.04,1.52-.04h21.52c15.78,0,30.17-6.4,40.45-16.68,10.29-10.4,16.69-24.57,16.69-40.46,0-31.54-25.48-57.13-57.14-57.13h-92.43c-11.65,0-22.15-6.96-26.69-17.67l-.3-.72c-4.31-11.23-1.04-23.02,6.64-30.61,.16-.15,.32-.3,.47-.45,.3-.29,.62-.56,.94-.84,.08-.06,.15-.13,.23-.2,.31-.26,.62-.52,.95-.76,.47-.36,.94-.72,1.43-1.05,.28-.19,.57-.37,.86-.56,1.09-.7,2.24-1.31,3.44-1.83,.2-.1,.41-.18,.62-.27,.21-.1,.44-.18,.66-.27,.19-.07,.39-.15,.58-.21,.34-.13,.69-.25,1.04-.36,.45-.14,.92-.28,1.38-.4,.46-.13,.93-.24,1.41-.33,.47-.11,.95-.19,1.45-.27,.42-.06,.85-.12,1.27-.17,.16-.01,.33-.03,.49-.04,.39-.04,.77-.06,1.17-.09h.04c.5-.03,1.01-.04,1.52-.04h57.17c15.77,0,30.05-6.4,40.45-16.68,.49-.49,.97-1.01,1.45-1.52,.36-.39,.72-.78,1.05-1.18,.05-.04,.1-.1,.14-.15,.28-.31,.55-.63,.81-.95,.72-.87,1.42-1.77,2.11-2.7,.34-.47,.69-.95,1.03-1.45,.08-.11,.15-.21,.21-.32,.34-.49,.67-1,1-1.51,.02-.02,.04-.05,.05-.09,.29-.45,.56-.9,.84-1.36,.09-.15,.18-.3,.27-.46,.34-.59,.69-1.19,1.01-1.8,1.68-3.14,3.07-6.46,4.16-9.92,.24-.74,.45-1.5,.65-2.26,1-3.77,1.63-7.69,1.83-11.74,1.71-33.09-27.13-60.19-60.3-60.19h-182.47c-.15,0-.3,.02-.44,.04h-.04c-.13,.02-.27,.05-.41,.05-.31-.01-.62-.04-.93-.06h-.03c-.12-.01-.24-.01-.34-.02-.15-.01-.3-.01-.45-.01H228.57c-15.77,0-30.05,6.4-40.45,16.8-10.28,10.28-16.69,24.57-16.69,40.33,0,31.66,25.6,57.14,57.14,57.14h56.06c20.8,0,34.92,21.15,26.93,40.35l-70.83,170.23c-4.52,10.87-15.14,17.96-26.93,17.96h-56.66c-15.77,0-30.05,6.4-40.35,16.8-10.4,10.28-16.79,24.57-16.79,40.33,0,31.66,25.6,57.14,57.14,57.14h83.16c.2,0,.39,.1,.49,.26l211.44,316.95q.11,.12,.22,.24s.04,.04,.05,.06c.21,.32,.48,.6,.71,.91,.73,1.03,1.47,2.07,2.32,3.02,.47,.63,1.14,1.15,1.64,1.75,.85,.96,1.54,2.05,2.45,2.94,.43,.43,.95,.75,1.4,1.17,.49,.46,.85,1.01,1.36,1.46,.37,.32,.75,.64,1.14,.95,1.17,.93,2.38,1.81,3.61,2.67,.66,.48,1.35,.93,2.05,1.38l4.87,2.77c.47,.26,.97,.43,1.45,.67,1.1,.54,2.17,1.1,3.32,1.55,.21,.09,.41,.21,.62,.31,.06,.03,.14,.06,.21,.09h.11c2.17,.91,4.35,1.6,6.63,2.06,.24,.06,.49,.07,.73,.14,1.08,.25,2.18,.43,3.29,.61,.92,.16,1.81,.42,2.73,.51,.5,.07,1.02,.14,1.52,.19,.11,.01,.22,.02,.33,.03,.34,.03,.69,.06,1.04,.09,.69,.04,1.38,.09,2.07,.11,.34,.01,.7,.02,1.04,.02,.29,.01,.57,.01,.86,.01,2.28,0,4.57-.11,6.85-.45,2.29-.24,4.57-.69,6.75-1.26,2.28-.46,4.46-1.15,6.63-2.06h.11c1.95-.69,3.78-1.6,5.6-2.62,2.06-.92,4.01-2.06,5.83-3.32,2.07-1.37,4.01-2.86,5.84-4.45,2.51-2.17,4.92-4.57,6.85-7.31,1.15-1.25,2.17-2.62,3.08-3.99l.22-.24,87.91-131.77,1.04-1.56,113.07-169.49,1.55-2.32c2.44-3.4,8.04-12.06,8.04-12.06,0,0,10.07,.11,15.1,.11h65.73c.76,0,1.49-.09,2.24-.11h.41c.14,0,.27-.04,.42-.04,2.01-.11,4.02-.31,6-.61,11.52-1.31,22.07-5.83,30.47-12.86,.3-.25,.6-.5,.89-.76,.3-.27,.59-.52,.88-.79,.58-.52,1.14-1.06,1.69-1.62,.54-.54,1.05-1.07,1.55-1.63,.21-.24,.43-.46,.63-.7,.22-.24,.43-.47,.62-.71,6.3-7.29,10.67-16.17,12.66-25.96,.57-2.55,1.01-5.14,1.19-7.81,.01-.04,.01-.09,.02-.13,.02-.11,.02-.2,.02-.31,.05-.82,0-1.64,0-2.45,.01-.81,.05-1.63,.05-2.44,.01-.01,.01-.02,0-.03,.01-.06,0-.13,0-.18,0-.25-.01-.5-.02-.75Zm-357.37,178.85c-20.25,30.35-64.86,30.35-85.13,0l-121.36-181.78c-.11-.17-.13-.37-.05-.56l97.26-233.74c5.08-12.2,13.07-23.05,23.25-31.07,.21-.16,.43-.32,.64-.48,.64-.5,1.3-1,1.96-1.46,.37-.27,.74-.51,1.11-.76,5.22-3.6,10.95-6.47,17.08-8.44,2.58-.82,5.17-1.51,7.75-2.03,.1-.02,.2-.04,.3-.06,.02-.01,.03-.01,.04,0,.42-.1,.84-.18,1.25-.26,.44-.09,.87-.16,1.31-.24l.24-.03c.36-.07,.72-.13,1.07-.17l1.35-.19c.31-.04,.61-.07,.92-.12,.07-.01,.15-.01,.22-.02,.01,0,.03,0,.04-.01h.1l1.05-.12,.29-.03,4.18-.26,2.54-.05h.01c.67,0,1.35,.01,2.02,.03,.34,.01,.67,.02,1.02,.04,.66,.02,1.33,.05,1.98,.11,.34,.02,.67,.04,1.02,.07,.66,.05,1.33,.12,1.99,.19,.64,.07,1.29,.16,1.93,.25h.02c.63,.1,1.27,.19,1.91,.3,.52,.09,1.06,.18,1.59,.29,.31,.05,.61,.12,.91,.18,.59,.12,1.18,.25,1.76,.37,.73,.17,1.45,.35,2.16,.55,.03,0,.06,.01,.1,.02l1.51,.42c2.43,.71,4.82,1.54,7.15,2.5,.59,.25,1.17,.49,1.75,.75,.58,.26,1.16,.52,1.74,.79,.57,.27,1.14,.55,1.7,.84,.57,.29,1.12,.58,1.68,.88,13.99,7.57,25.36,19.76,31.83,35.02l38.7,92.95,59.46,143.11c.07,.17,.05,.37-.05,.52l-121.31,181.7Z"/><path class="cls-5" d="M642.8,159.89c-.69,14.77-6.94,27.9-16.74,37.7-10.29,10.28-24.57,16.68-40.34,16.68h-85.73c-28.92,0-54.99,17.39-66.1,44.08l-109.77,263.76-.11,.23c-2.86,6.74-7.09,12.91-12.23,18.05-10.29,10.28-24.57,16.68-40.34,16.68h-114.29c-31.54,0-57.14-25.48-57.14-57.13,0-15.77,6.4-30.05,16.8-40.34,10.29-10.4,24.57-16.8,40.34-16.8h57.06c11.54,0,21.95-6.94,26.38-17.59l71.31-171.4c7.83-18.81-6-39.54-26.38-39.54h-56.94c-31.54,0-57.14-25.48-57.14-57.13,0-15.77,6.4-30.05,16.69-40.34,10.4-10.4,24.69-16.8,40.46-16.8h354.5c32.94,0,61.26,26.99,59.72,59.89Z"/><path class="cls-6" d="M899.94,502.7c-.69,14.77-6.94,27.91-16.74,37.7-10.29,10.28-24.57,16.68-40.34,16.68h-114.29c-1.94,0-3.89-.11-5.83-.34-1.71-.11-3.31-.34-4.91-.69-1.49-.23-2.86-.57-4.23-1.03-1.49-.34-2.86-.8-4.23-1.26-1.83-.69-3.66-1.37-5.37-2.29-.23,0-.46-.11-.69-.34-1.71-.8-3.43-1.83-5.03-2.86-.69-.34-1.37-.8-1.94-1.26-1.03-.57-1.94-1.26-2.86-2.06-.8-.57-1.6-1.26-2.29-1.94-.34-.11-.69-.46-.91-.8-.69-.57-1.37-1.14-2.06-1.83-.57-.57-1.14-1.26-1.71-1.83-4.57-4.68-8.34-10.28-10.97-16.68l-71.09-171.06-70.97-170.49c-.23-.57-.46-1.14-.8-1.71-2.63-6.63-4.11-13.83-4.11-21.48,0-15.77,6.4-30.05,16.8-40.34,10.29-10.4,24.57-16.8,40.34-16.8h183.07c32.94,0,61.27,26.99,59.73,59.89-.69,14.76-6.93,27.9-16.62,37.69-10.4,10.28-24.69,16.68-40.46,16.68h-57.17c-20.38,0-34.21,20.72-26.38,39.54h0c4.43,10.65,14.84,17.59,26.38,17.59h92.83c31.66,0,57.14,25.6,57.14,57.13,0,15.88-6.4,30.05-16.69,40.45-10.29,10.28-24.69,16.68-40.46,16.68h-21.51c-20.38,0-34.21,20.72-26.38,39.54h0c4.43,10.65,14.84,17.6,26.38,17.6h54.64c32.94,0,61.26,26.99,59.72,59.89Z"/><path class="cls-2" d="M776.23,531.82l-16.85,25.26-8.04,12.06-1.55,2.32-113.07,169.49-1.04,1.56-87.91,131.77-.22,.24c-.91,1.37-1.94,2.74-3.08,3.99-1.94,2.74-4.35,5.14-6.85,7.31-1.83,1.6-3.77,3.08-5.84,4.45-1.82,1.26-3.77,2.4-5.83,3.32-1.82,1.03-3.65,1.94-5.6,2.62h-.11c-2.17,.91-4.35,1.6-6.63,2.06-2.17,.58-4.46,1.03-6.75,1.26-2.28,.34-4.57,.45-6.85,.45-.29,0-.57,0-.86-.01-.34,0-.7-.01-1.04-.02-.69-.02-1.38-.06-2.07-.11-.35-.02-.7-.05-1.04-.09-.11-.01-.22-.02-.33-.03-.5-.05-1.02-.12-1.52-.19-2.29-.24-4.57-.69-6.75-1.26-2.28-.46-4.46-1.15-6.63-2.06h-.11c-.07-.02-.15-.05-.21-.09-1.87-.66-3.62-1.55-5.39-2.54l-4.87-2.77-.95-.55c-1.64-1.09-3.2-2.26-4.7-3.5-.39-.31-.76-.63-1.14-.95-2.62-2.28-4.91-4.68-6.85-7.31-1.15-1.25-2.17-2.62-3.08-3.99q-.12-.12-.22-.24l-211.44-316.95-.17-.26-16.85-25.26c-11.96-17.87-12.52-39.95-3.38-57.76h.01c4.29-8.4,10.73-15.83,19.15-21.42,9.82-6.52,20.8-9.71,31.77-9.71,18.4,0,36.46,9.03,47.43,25.48l17.08,25.58,.07,.12,.18,.27,121.36,181.78c20.26,30.35,64.87,30.35,85.13,0l121.31-181.7,.17-.26,.06-.1,17.16-25.7c10.97-16.45,29.03-25.48,47.43-25.48,10.97,0,21.95,3.19,31.77,9.71,8.44,5.61,14.9,13.08,19.2,21.49v.03c9.09,17.79,8.51,39.83-3.43,57.66Z"/><g class="cls-3"><path class="cls-4" d="M785.6,499.83c0,22.4-13.26,43.65-35.2,52.91-29.14,12.11-62.63-1.71-74.74-30.85l-109.69-263.62c-11.08-26.64-37.11-43.99-65.96-43.99h0c-28.86,0-54.88,17.36-65.96,43.99l-109.69,263.62c-12.11,29.14-45.6,42.97-74.74,30.85-21.94-9.26-35.2-30.51-35.2-52.91,0-7.2,1.37-14.63,4.34-21.83l109.72-263.73h0c28.79-69.19,96.38-114.27,171.32-114.27h.44c74.95,0,142.54,45.08,171.32,114.27h0l109.72,263.73c2.97,7.2,4.34,14.63,4.34,21.83Z"/></g></g></g></g></svg>