<?xml version="1.0" encoding="UTF-8"?><svg id="Capa_1" xmlns="http://www.w3.org/2000/svg" viewBox="0 0 1000 1000"><defs><style>.cls-1{fill:#f2f2f2;}</style></defs><rect width="1000" height="1000"/><path class="cls-1" d="M899.97,498.26c0-.07-.01-.14-.01-.21-.01-.29-.02-.58-.04-.86,0-.04,0-.07-.01-.11s-.02-.09-.02-.13c-.15-2.62-.56-5.17-1.1-7.69-.37-1.96-.84-3.88-1.41-5.75-.05-.15-.1-.31-.15-.46-6.68-20.08-24.75-35.38-46.26-39.27-1.09-.15-2.19-.28-3.31-.37-1.25-.17-2.5-.29-3.78-.39-.34,0-.66-.09-1.02-.09h-1c-.74-.04-1.48-.12-2.23-.12h-54.79c-9.9,0-18.91-5.35-23.72-13.78l-.29-.51s-.03-.06-.05-.09c-.22-.38-.43-.77-.63-1.17-.34-.66-.66-1.35-.95-2.05-.29-.69-.55-1.39-.77-2.09-4.08-12.32,.8-25.1,10.45-32.07,.36-.28,.73-.53,1.1-.76,.05-.04,.09-.07,.14-.1,.29-.19,.58-.37,.87-.54,.48-.29,.98-.57,1.48-.82,.22-.12,.45-.24,.68-.34,.14-.08,.28-.14,.43-.2,.31-.16,.63-.3,.96-.42,.37-.17,.75-.32,1.14-.45,.39-.15,.78-.29,1.18-.41,.06-.02,.12-.04,.19-.06,.22-.07,.44-.14,.67-.19,.09-.03,.17-.06,.26-.08,.09-.03,.18-.06,.27-.07,.13-.04,.25-.07,.38-.1,.2-.05,.41-.1,.62-.14,.08-.03,.15-.04,.23-.05,.46-.11,.93-.2,1.4-.26,.24-.04,.48-.08,.72-.11,.24-.04,.48-.07,.72-.09,.18-.03,.36-.04,.54-.06,.27-.03,.54-.05,.81-.06,.37-.03,.75-.05,1.13-.05,0,0,.01-.01,.02,0,.12-.01,.25-.01,.38-.01,.12-.01,.25-.01,.38-.01h21.51c5.63,0,11.09-.82,16.24-2.33h.01c.94-.28,1.86-.58,2.78-.9,1.37-.49,2.73-1.02,4.05-1.6,1.02-.44,2.01-.91,2.99-1.41,.41-.21,.82-.43,1.22-.64,1.22-.66,2.41-1.37,3.57-2.1,1.16-.74,2.29-1.52,3.39-2.34,.74-.55,1.46-1.11,2.16-1.69,1.41-1.16,2.76-2.38,4.04-3.67,.11-.11,.22-.23,.33-.34,.43-.44,.86-.89,1.27-1.34,.52-.57,1.03-1.15,1.53-1.74,.66-.78,1.31-1.58,1.93-2.4,.62-.82,1.22-1.66,1.8-2.51,.29-.43,.57-.86,.85-1.29,.74-1.16,1.44-2.35,2.1-3.56,.44-.81,.86-1.63,1.26-2.46,.4-.83,.78-1.68,1.14-2.53,.36-.85,.7-1.72,1.02-2.59,.24-.65,.47-1.31,.68-1.98,.22-.67,.43-1.34,.62-2.02,.25-.86,.47-1.74,.67-2.62,.36-1.54,.66-3.1,.89-4.69,.12-.83,.23-1.67,.31-2.51,.1-.97,.18-1.94,.22-2.92s.07-1.97,.07-2.96c0-1.88-.09-3.74-.26-5.56-.07-.74-.16-1.46-.25-2.19-.05-.36-.1-.72-.16-1.08-.15-.96-.32-1.92-.52-2.86-.14-.66-.29-1.32-.45-1.98-.2-.83-.42-1.66-.66-2.48-.22-.73-.45-1.45-.69-2.17-.15-.44-.3-.88-.47-1.32-1.27-3.5-2.88-6.84-4.78-9.97-.24-.4-.49-.79-.74-1.18-2.22-3.48-4.82-6.7-7.72-9.6-10.33-10.34-24.62-16.74-40.44-16.74h-92.82c-5.77,0-11.26-1.74-15.86-4.8-3.96-2.65-7.28-6.28-9.53-10.66-.36-.69-.69-1.4-.99-2.13-.3-.73-.58-1.46-.81-2.2-1.14-3.49-1.56-7.02-1.36-10.44,.01-.27,.03-.54,.06-.82,.07-.82,.18-1.64,.32-2.45,.05-.26,.1-.53,.16-.79,.1-.53,.23-1.06,.37-1.58,.24-.9,.52-1.79,.86-2.66,.32-.87,.69-1.73,1.11-2.56,2.06-4.23,5.15-7.92,9-10.69,.24-.19,.48-.36,.73-.51,.28-.2,.56-.39,.85-.56,.29-.18,.57-.35,.86-.52,.24-.14,.48-.27,.73-.4,1.01-.55,2.06-1.03,3.14-1.44,.17-.07,.34-.14,.51-.19,.36-.14,.73-.27,1.11-.39,.45-.14,.91-.28,1.38-.4,.46-.12,.93-.23,1.41-.33,.46-.1,.94-.19,1.41-.26,.01,0,.03-.01,.04-.01,.41-.06,.84-.11,1.27-.17,.04,0,.09-.01,.13-.01,.16-.01,.31-.03,.47-.04,.35-.03,.7-.06,1.06-.08h.04c.51-.03,1.02-.04,1.53-.04h57.16c15.78,0,30.06-6.4,40.46-16.68,.45-.46,.89-.92,1.33-1.39,.07-.08,.14-.15,.2-.23,.34-.36,.66-.72,.97-1.08,.75-.85,1.47-1.73,2.16-2.62,.3-.38,.6-.78,.9-1.18,.34-.47,.68-.96,1.03-1.45,.43-.63,.86-1.27,1.26-1.92,.29-.45,.56-.89,.84-1.35h0c.05-.09,.09-.16,.13-.24,.23-.37,.44-.75,.65-1.12,.17-.3,.33-.6,.49-.91,.41-.76,.8-1.53,1.18-2.31,.39-.83,.77-1.67,1.12-2.52,.17-.41,.34-.83,.51-1.25,.14-.35,.27-.7,.4-1.06,.15-.41,.3-.82,.44-1.24,.13-.37,.26-.76,.38-1.14,.04-.13,.08-.26,.13-.39,.23-.75,.44-1.5,.65-2.26,.22-.86,.43-1.73,.62-2.6,.09-.44,.18-.87,.27-1.31,.08-.44,.16-.88,.24-1.32v-.02c.14-.86,.27-1.73,.37-2.61,.01-.06,.02-.12,.02-.18,.05-.38,.09-.77,.12-1.16,.04-.34,.07-.69,.09-1.03,.04-.5,.07-1,.1-1.51,1.71-33.09-27.13-60.19-60.3-60.19h-182.47c-.15,0-.3,.02-.44,.04h-.05c-.13,.02-.26,.05-.4,.05-.3-.01-.61-.04-.91-.06h-.05c-.12,0-.24,0-.35-.02-.15-.01-.29-.01-.44-.01H228.57c-15.77,0-30.05,6.4-40.45,16.8-1.93,1.93-3.72,4-5.36,6.19-.82,1.09-1.6,2.22-2.34,3.38-.74,1.15-1.44,2.34-2.1,3.55-.44,.81-.86,1.63-1.26,2.46-3.6,7.49-5.63,15.88-5.63,24.75,0,31.66,25.6,57.14,57.14,57.14h56.95c20.38,0,34.2,20.72,26.38,39.54l-.34,.81-70.98,170.59c-4.43,10.66-14.84,17.6-26.38,17.6h-57.05c-15.78,0-30.06,6.4-40.35,16.8-10.4,10.28-16.8,24.56-16.8,40.33,0,31.66,25.6,57.14,57.15,57.14h83.47l.17,.26,211.45,316.95q.1,.11,.22,.23s.03,.05,.05,.07c.22,.32,.49,.6,.71,.91,.73,1.02,1.47,2.06,2.33,3.02,.47,.63,1.13,1.14,1.63,1.74,.85,.97,1.55,2.05,2.46,2.95,.43,.42,.95,.75,1.4,1.16,.49,.46,.85,1.01,1.36,1.46,.38,.32,.75,.64,1.14,.95,1.16,.94,2.37,1.81,3.61,2.67,.66,.48,1.34,.93,2.04,1.38l4.87,2.77c.48,.26,.98,.43,1.45,.68,1.1,.53,2.17,1.1,3.32,1.55,.21,.09,.41,.22,.62,.31,.07,.03,.14,.07,.22,.09h.1c2.18,.91,4.35,1.59,6.63,2.05,.06,.02,.12,.03,.18,.04,.18,.04,.37,.06,.55,.1,1.08,.25,2.19,.43,3.29,.61,.92,.16,1.81,.42,2.73,.52,.5,.07,1.02,.14,1.52,.19,.11,.01,.23,.02,.33,.03,.35,.04,.69,.07,1.04,.09,.69,.04,1.38,.08,2.07,.11,.34,.01,.69,.02,1.04,.02,.29,.01,.57,.01,.85,.01,2.29,0,4.58-.11,6.86-.45,2.29-.24,4.57-.69,6.75-1.27,2.28-.46,4.45-1.14,6.63-2.05h.1c1.95-.69,3.78-1.6,5.6-2.63,2.06-.92,4.01-2.05,5.83-3.31,2.07-1.38,4.01-2.86,5.84-4.46,2.5-2.17,4.91-4.57,6.85-7.31,1.15-1.26,2.18-2.63,3.09-4l.22-.23,87.91-131.78,1.04-1.56,113.07-169.49,1.55-2.32,6.37-9.5,.36-.54,.34-.52,.32-.49,.28-.43,.38-.58h83.47c.14,0,.27-.04,.42-.04,2.02-.11,4.02-.31,6-.61,11.51-1.31,22.05-5.82,30.45-12.84,.19-.16,.37-.31,.55-.48,.32-.27,.64-.55,.95-.84,.39-.35,.76-.7,1.14-1.05,.28-.28,.56-.55,.84-.83,.53-.53,1.05-1.07,1.55-1.62,.22-.24,.43-.46,.64-.7,.22-.23,.42-.46,.62-.7,.39-.46,.78-.92,1.16-1.39,.36-.44,.71-.88,1.04-1.33,.32-.42,.64-.85,.94-1.28,.29-.4,.58-.81,.85-1.22,.26-.38,.53-.77,.77-1.16,3.76-5.88,6.45-12.48,7.9-19.58,.56-2.55,1-5.14,1.18-7.81,.01-.02,.02-.04,.02-.06,.01-.02,.01-.05,.01-.07,.01-.1,.02-.21,.02-.31,.05-.82,0-1.64,0-2.45,.01-.81,.05-1.63,.05-2.44,0-.01,.01-.01,.01-.01Zm-236.1-3.8l-121.3,181.69c-20.26,30.35-64.86,30.35-85.13,0l-121.36-181.78-.17-.26h-.01l-.07-.12h0l98.06-235.64c5.21-12.52,13.72-23.01,24.27-30.57,.32-.25,.65-.48,.98-.71,.22-.16,.44-.31,.66-.45,.37-.26,.74-.5,1.11-.75,.14-.09,.29-.19,.44-.28,4.92-3.27,10.28-5.89,15.99-7.72,.56-.18,1.11-.35,1.67-.51,1.45-.43,2.91-.82,4.37-1.14,.22-.05,.43-.1,.64-.15,.47-.11,.94-.21,1.41-.31,.13-.03,.27-.05,.4-.08,.29-.06,.57-.11,.86-.17h.03c.42-.08,.85-.15,1.28-.23,.1,0,.21-.03,.31-.05,.09-.01,.17-.03,.26-.04,.12-.02,.25-.04,.37-.06l.36-.06c.44-.07,.88-.13,1.32-.19,.16-.02,.33-.04,.49-.06,.2-.02,.4-.04,.59-.07,.04,0,.07-.01,.1-.01,.05,0,.1-.01,.14-.02,.45-.05,.9-.09,1.36-.14h.05c.41-.04,.83-.07,1.25-.11,1.78-.13,3.58-.2,5.39-.2h.02c.67,0,1.35,0,2.02,.03,.17,0,.34,.01,.51,.02,.5,.01,1,.04,1.5,.07,.33,.01,.66,.04,.99,.06,.34,.02,.68,.05,1.02,.08,.67,.05,1.33,.12,1.99,.19,.65,.07,1.29,.16,1.93,.25,.04,0,.09,.01,.13,.02,.6,.08,1.2,.17,1.79,.28,.32,.05,.64,.1,.96,.16,.53,.09,1.06,.2,1.59,.32,.25,.05,.51,.1,.76,.16,.45,.09,.91,.19,1.36,.3,.59,.14,1.17,.3,1.75,.45,.55,.14,1.09,.29,1.63,.45,1.77,.51,3.51,1.09,5.22,1.74,1.24,.46,2.46,.96,3.67,1.5,.76,.33,1.52,.68,2.26,1.04,.39,.19,.78,.38,1.16,.58,.35,.17,.69,.35,1.03,.54,.3,.16,.6,.32,.9,.49,.3,.16,.6,.32,.9,.5,.33,.17,.66,.36,.98,.56,.95,.54,1.87,1.11,2.79,1.71,.22,.14,.43,.28,.64,.43,1.42,.94,2.82,1.93,4.17,2.99,.59,.46,1.18,.92,1.76,1.4,.42,.34,.83,.69,1.23,1.04,3.85,3.3,7.35,7.03,10.43,11.13,.38,.5,.75,1.01,1.12,1.53,.54,.74,1.05,1.49,1.54,2.25,.26,.38,.51,.76,.74,1.15,.54,.85,1.06,1.71,1.56,2.59,.18,.31,.35,.61,.51,.92,.9,1.61,1.74,3.27,2.51,4.97,.31,.69,.62,1.39,.91,2.09l98.13,235.85-.06,.08h0l-.17,.27Z"/></svg>