<?xml version="1.0" encoding="UTF-8"?><svg xmlns="http://www.w3.org/2000/svg" viewBox="0 0 1000 1000"><defs><style>.cls-1{isolation:isolate;}.cls-2{mix-blend-mode:multiply;}</style></defs><g class="cls-1"><g id="Capa_1"><g class="cls-2"><path d="M899.92,497.18s0-.06,0-.1c-.01-.04-.03-.09-.03-.13-.15-2.62-.55-5.17-1.09-7.69-.37-1.92-.83-3.8-1.38-5.63l-.06-.21c-6.59-20.26-24.75-35.73-46.38-39.64-1.09-.15-2.19-.28-3.31-.37-1.25-.17-2.51-.29-3.78-.39-.34,0-.66-.09-1.02-.09h-1c-.74-.04-1.48-.12-2.23-.12h-54.8c-9.89,0-18.9-5.35-23.71-13.78l-.29-.51s-.04-.07-.05-.11c-.22-.38-.43-.76-.63-1.15-.34-.66-.66-1.35-.95-2.05-.29-.69-.55-1.39-.77-2.09-.49-1.48-.85-2.98-1.09-4.46-.39-2.45-.45-4.89-.21-7.27,.04-.47,.1-.93,.18-1.39,.06-.41,.13-.81,.21-1.21,.06-.3,.12-.6,.19-.9,.09-.37,.18-.74,.28-1.11,.2-.73,.43-1.46,.69-2.17,.13-.36,.26-.71,.41-1.06,.22-.56,.47-1.12,.74-1.67,.17-.37,.36-.72,.55-1.08,0-.01,0-.01,0-.01,.33-.62,.68-1.23,1.07-1.82,.17-.28,.35-.56,.56-.84,.22-.33,.45-.66,.7-.98,.58-.79,1.21-1.54,1.88-2.26,.08-.09,.17-.18,.26-.27,.4-.44,.83-.87,1.27-1.28,.26-.25,.52-.49,.79-.71,.22-.2,.45-.39,.68-.58,.21-.18,.43-.35,.65-.52,.21-.17,.42-.33,.63-.48,.36-.28,.73-.53,1.1-.76,.05-.04,.09-.07,.14-.1,.29-.19,.58-.37,.87-.54,.48-.29,.98-.57,1.48-.82,.22-.12,.45-.24,.68-.34,.14-.08,.28-.14,.43-.2,.31-.16,.63-.3,.96-.42,.37-.17,.75-.32,1.14-.45,.39-.15,.78-.29,1.17-.41,.29-.09,.58-.18,.87-.25,.09-.03,.17-.06,.26-.08,.09-.03,.18-.06,.27-.07,.13-.04,.25-.07,.38-.1,.2-.05,.41-.1,.62-.14,.08-.03,.15-.04,.23-.05,.46-.11,.93-.2,1.4-.26,.24-.04,.48-.08,.72-.11,.24-.04,.48-.07,.72-.09,.18-.03,.36-.04,.54-.06,.27-.03,.54-.05,.81-.06,.37-.03,.75-.05,1.13-.05,0,0,.01-.01,.02,0,.12-.01,.25-.01,.38-.01,.12-.01,.25-.01,.38-.01h21.51c5.63,0,11.09-.82,16.24-2.33h.01c.94-.28,1.86-.58,2.78-.9,1.37-.49,2.73-1.02,4.05-1.6,1.02-.44,2.01-.91,2.99-1.41,.41-.21,.82-.43,1.22-.64,1.22-.66,2.41-1.37,3.57-2.1,1.16-.74,2.29-1.52,3.39-2.34,.74-.55,1.46-1.11,2.16-1.69,1.41-1.16,2.76-2.38,4.04-3.67,1.61-1.63,3.12-3.34,4.53-5.14,.57-.72,1.11-1.46,1.64-2.2,1.06-1.5,2.05-3.04,2.96-4.64,.46-.79,.9-1.6,1.32-2.42,.84-1.64,1.6-3.33,2.28-5.06,.34-.86,.66-1.74,.96-2.62,.15-.44,.29-.89,.43-1.34,.28-.89,.53-1.79,.77-2.7,.59-2.28,1.04-4.63,1.34-7.02,.12-.92,.21-1.85,.28-2.78,.12-1.49,.18-3,.18-4.53,0-31.54-25.48-57.14-57.14-57.14h-92.83c-5.77,0-11.26-1.74-15.85-4.8-3.94-2.63-7.23-6.23-9.49-10.57-.38-.72-.72-1.46-1.04-2.22-.32-.77-.61-1.54-.85-2.32-.93-2.9-1.37-5.82-1.37-8.68,0-.48,.01-.95,.04-1.43,.02-.48,.06-.96,.11-1.44,.05-.47,.11-.94,.18-1.41,.06-.39,.13-.79,.21-1.17,.02-.12,.04-.24,.07-.36,.09-.42,.19-.84,.3-1.25,.11-.46,.24-.91,.39-1.36,.14-.45,.28-.89,.45-1.33,.16-.44,.33-.88,.52-1.31,.29-.68,.6-1.34,.95-1.99,1.15-2.26,2.63-4.36,4.35-6.24,.31-.35,.64-.69,.98-1.01,.03-.04,.06-.08,.1-.1,.62-.62,1.26-1.19,1.93-1.72,.03-.04,.07-.07,.11-.1,.23-.19,.47-.38,.71-.56,.18-.15,.36-.28,.54-.41,.24-.19,.48-.36,.73-.51,.14-.11,.28-.2,.42-.28,.14-.11,.28-.2,.43-.28,.28-.18,.57-.35,.86-.52,.26-.15,.53-.3,.8-.44,.02-.02,.04-.03,.06-.03,.27-.15,.54-.29,.81-.42,.31-.15,.62-.29,.93-.43,.2-.09,.4-.18,.6-.25,.22-.1,.44-.19,.67-.27,.17-.08,.34-.14,.52-.2,.36-.14,.72-.26,1.09-.38,.4-.13,.81-.25,1.23-.36,.54-.14,1.08-.27,1.63-.38,.42-.1,.86-.17,1.3-.25h.03c.44-.07,.88-.13,1.33-.18,.04,0,.07-.01,.11-.01,.18-.02,.36-.03,.54-.04,.33-.04,.67-.06,1.01-.08h.06c.5-.03,1-.04,1.5-.04h57.17c15.77,0,30.06-6.4,40.46-16.68,.49-.5,.97-1.01,1.44-1.52,.19-.19,.37-.39,.54-.59,.09-.1,.18-.2,.26-.3,.09-.1,.17-.2,.25-.29,.03-.02,.05-.04,.07-.06,.39-.45,.78-.91,1.15-1.37,.27-.33,.54-.66,.8-1,.36-.45,.7-.9,1.05-1.37,.34-.47,.68-.96,1.02-1.45,.08-.11,.15-.21,.22-.32,.31-.45,.62-.92,.92-1.39,.05-.07,.09-.14,.13-.21,.14-.23,.28-.45,.42-.68,.14-.22,.28-.45,.41-.68,.2-.32,.38-.65,.57-.97,.24-.42,.48-.84,.71-1.28h0c.41-.77,.8-1.54,1.18-2.32,.39-.83,.77-1.67,1.12-2.52,.17-.41,.34-.83,.51-1.25,.33-.83,.64-1.68,.92-2.54,.15-.43,.28-.86,.42-1.29,.5-1.59,.93-3.21,1.28-4.86,.06-.27,.11-.54,.17-.81,.06-.3,.12-.6,.17-.89,.09-.48,.17-.95,.24-1.43,.09-.55,.17-1.11,.24-1.67,.04-.3,.08-.6,.11-.9,.04-.3,.07-.6,.09-.9,.04-.34,.07-.69,.09-1.03,.04-.5,.07-1,.1-1.51,1.71-33.09-27.13-60.19-60.3-60.19h-182.47c-.15,0-.3,.02-.44,.04h-.05c-.13,.02-.26,.05-.4,.05-.3-.01-.61-.04-.91-.06h-.06c-.11,0-.23,0-.34-.02-.15-.01-.29-.01-.44-.01H228.57c-15.77,0-30.05,6.4-40.45,16.8-10.29,10.28-16.69,24.57-16.69,40.33,0,31.66,25.6,57.14,57.14,57.14h56.94c20.39,0,34.21,20.72,26.38,39.54l-.34,.81-70.97,170.59c-4.43,10.66-14.84,17.6-26.38,17.6h-57.06c-15.77,0-30.05,6.4-40.34,16.8-10.4,10.28-16.8,24.56-16.8,40.33,0,31.66,25.6,57.14,57.14,57.14h83.48l.17,.26,211.44,316.95q.11,.11,.23,.23s.03,.05,.05,.07c.22,.32,.48,.6,.71,.91,.73,1.02,1.47,2.06,2.32,3.02,.47,.63,1.14,1.14,1.64,1.74,.85,.97,1.54,2.05,2.46,2.95,.42,.42,.95,.75,1.4,1.16,.49,.46,.84,1.01,1.36,1.46,.37,.32,.75,.64,1.13,.95,1.17,.94,2.38,1.81,3.61,2.67,.67,.48,1.35,.93,2.05,1.38l4.87,2.77c.47,.26,.98,.43,1.45,.68,1.1,.53,2.17,1.1,3.32,1.55,.21,.09,.4,.22,.62,.31,.06,.03,.14,.07,.21,.09h.11c2.17,.91,4.35,1.59,6.63,2.05,.06,.02,.12,.03,.18,.04,.18,.04,.37,.06,.55,.1,1.08,.25,2.18,.43,3.29,.61,.92,.16,1.81,.42,2.73,.52,.5,.07,1.02,.14,1.52,.19,.11,.01,.22,.02,.33,.03,.34,.04,.69,.07,1.04,.09,.68,.04,1.38,.08,2.07,.11,.34,.01,.69,.02,1.04,.02,.28,.01,.56,.01,.85,.01,2.28,0,4.58-.11,6.86-.45,2.29-.24,4.57-.69,6.74-1.27,2.29-.46,4.46-1.14,6.63-2.05h.11c1.95-.69,3.78-1.6,5.6-2.63,2.06-.92,4.01-2.05,5.83-3.31,2.07-1.38,4-2.86,5.84-4.46,2.5-2.17,4.91-4.57,6.85-7.31,1.15-1.26,2.18-2.63,3.09-4l.22-.23,87.91-131.78,1.04-1.56,113.07-169.49,1.55-2.32,6.37-9.5,.36-.54,.34-.52,.32-.49,.28-.43,.38-.58h83.47c.14,0,.27-.04,.42-.04,2.01-.11,4.02-.31,6-.61,11.51-1.31,22.05-5.82,30.45-12.84,.19-.16,.37-.31,.55-.48,.32-.27,.64-.55,.95-.84,.39-.35,.76-.7,1.14-1.05,.28-.28,.56-.55,.84-.83,.53-.53,1.05-1.07,1.55-1.62,.16-.17,.31-.33,.46-.5,.05-.06,.11-.13,.17-.2,.1-.1,.19-.2,.28-.3,.07-.07,.13-.15,.2-.22,.04-.06,.09-.12,.14-.18,6.3-7.3,10.67-16.17,12.66-25.96,.57-2.55,1.01-5.14,1.19-7.81,.01-.04,.01-.08,.02-.13,.01-.02,.01-.03,.01-.04v-.03s0-.05,0-.08c.01-.05,.01-.11,.01-.16,.05-.82,0-1.64,0-2.45,0-.81,.05-1.63,.05-2.44t0-.02c.01-.07,0-.13,0-.2-.01-.29-.02-.58-.04-.87Zm-236.05-2.72l-121.3,181.69c-20.26,30.35-64.87,30.35-85.13,0l-121.36-181.78-.18-.27-.08-.11,98.06-235.64c5.13-12.3,13.43-22.65,23.74-30.17,.18-.14,.36-.27,.54-.4,.32-.25,.65-.48,.98-.71,.21-.16,.43-.31,.66-.45,.15-.11,.3-.21,.46-.31,.22-.15,.43-.3,.65-.44,.14-.09,.29-.19,.44-.28,4.92-3.27,10.28-5.89,15.99-7.72,.56-.18,1.13-.35,1.69-.52,1.24-.37,2.47-.69,3.71-.97,.25-.07,.5-.12,.75-.18,.05-.01,.1-.03,.15-.04,.15-.04,.31-.07,.46-.11,.44-.1,.89-.2,1.33-.29,.13-.03,.27-.05,.4-.08,.29-.06,.57-.11,.86-.17h.03c.42-.08,.85-.15,1.28-.23,.1-.02,.21-.04,.31-.05,.09-.01,.17-.03,.26-.04,.12-.02,.25-.04,.37-.06l.36-.06c.44-.07,.88-.13,1.32-.19l.49-.06c.2-.02,.4-.05,.6-.07,.03,0,.06-.01,.09-.01,.05-.01,.09-.01,.14-.02l1.36-.14h.05c.41-.04,.83-.07,1.25-.11l1.42-.05h.1l1.33-.09,2.54-.06h.01c.67,0,1.35,0,2.02,.03h.02c1,.03,1.99,.08,2.99,.15,.33,.02,.67,.05,1.01,.08,.33,.02,.66,.05,1,.09,.38,.03,.75,.07,1.13,.12,.6,.07,1.2,.14,1.79,.23,.02,0,.05,0,.07,.01,.62,.08,1.24,.18,1.86,.29,.35,.05,.69,.11,1.03,.18,.49,.09,.98,.18,1.47,.29,.43,.08,.86,.17,1.28,.27,.06,.01,.12,.02,.18,.04,.3,.07,.6,.13,.89,.21,1.1,.26,2.18,.55,3.25,.86,1.76,.51,3.49,1.09,5.19,1.73,1.23,.46,2.44,.96,3.64,1.5,.58,.24,1.16,.51,1.73,.79,.18,.08,.36,.16,.54,.25,.39,.19,.78,.38,1.16,.58,.35,.17,.69,.35,1.03,.54,.35,.18,.71,.37,1.05,.57,.59,.31,1.16,.63,1.73,.98,.23,.12,.46,.26,.69,.4,1.53,.9,3.01,1.87,4.46,2.9,.03,.02,.06,.03,.08,.06,.66,.47,1.32,.95,1.96,1.44,.65,.49,1.29,.99,1.92,1.52,.63,.5,1.25,1.02,1.86,1.57,1.5,1.31,2.94,2.68,4.32,4.11,5.61,5.77,10.27,12.54,13.71,20.11,.31,.69,.62,1.39,.91,2.09l98.13,235.85-.06,.08h0l-.17,.27Z"/></g></g></g></svg>